<svg id="visual" viewBox="0 0 2550 1440" width="2550" height="1440" xmlns="http://www.w3.org/2000/svg" xmlns:xlink="http://www.w3.org/1999/xlink" version="1.1"><rect x="0" y="0" width="2550" height="1440" fill="#071422"></rect><path d="M1113 1440L1118.5 1422.8C1124 1405.7 1135 1371.3 1088.5 1337C1042 1302.7 938 1268.3 871.7 1234C805.3 1199.7 776.7 1165.3 755.3 1131.2C734 1097 720 1063 717.2 1028.8C714.3 994.7 722.7 960.3 792.5 926C862.3 891.7 993.7 857.3 986.7 823C979.7 788.7 834.3 754.3 763.8 720C693.3 685.7 697.7 651.3 797.7 617C897.7 582.7 1093.3 548.3 1165.3 514C1237.3 479.7 1185.7 445.3 1074 411.2C962.3 377 790.7 343 729.2 308.8C667.7 274.7 716.3 240.3 806.2 206C896 171.7 1027 137.3 1131.3 103C1235.7 68.7 1313.3 34.3 1352.2 17.2L1391 0L2550 0L2550 17.2C2550 34.3 2550 68.7 2550 103C2550 137.3 2550 171.7 2550 206C2550 240.3 2550 274.7 2550 308.8C2550 343 2550 377 2550 411.2C2550 445.3 2550 479.7 2550 514C2550 548.3 2550 582.7 2550 617C2550 651.3 2550 685.7 2550 720C2550 754.3 2550 788.7 2550 823C2550 857.3 2550 891.7 2550 926C2550 960.3 2550 994.7 2550 1028.8C2550 1063 2550 1097 2550 1131.2C2550 1165.3 2550 1199.7 2550 1234C2550 1268.3 2550 1302.7 2550 1337C2550 1371.3 2550 1405.7 2550 1422.8L2550 1440Z" fill="#a23131"></path><path d="M1447 1440L1395.2 1422.8C1343.3 1405.7 1239.7 1371.3 1190.2 1337C1140.7 1302.7 1145.3 1268.3 1162.7 1234C1180 1199.7 1210 1165.3 1173.8 1131.2C1137.7 1097 1035.3 1063 1052.3 1028.8C1069.3 994.7 1205.7 960.3 1213.8 926C1222 891.7 1102 857.3 1039.2 823C976.3 788.7 970.7 754.3 932.5 720C894.3 685.7 823.7 651.3 869.2 617C914.7 582.7 1076.3 548.3 1089.2 514C1102 479.7 966 445.3 1006 411.2C1046 377 1262 343 1250.8 308.8C1239.7 274.7 1001.3 240.3 957.3 206C913.3 171.7 1063.7 137.3 1088.5 103C1113.3 68.7 1012.7 34.3 962.3 17.2L912 0L2550 0L2550 17.2C2550 34.3 2550 68.7 2550 103C2550 137.3 2550 171.7 2550 206C2550 240.3 2550 274.7 2550 308.8C2550 343 2550 377 2550 411.2C2550 445.3 2550 479.7 2550 514C2550 548.3 2550 582.7 2550 617C2550 651.3 2550 685.7 2550 720C2550 754.3 2550 788.7 2550 823C2550 857.3 2550 891.7 2550 926C2550 960.3 2550 994.7 2550 1028.8C2550 1063 2550 1097 2550 1131.2C2550 1165.3 2550 1199.7 2550 1234C2550 1268.3 2550 1302.7 2550 1337C2550 1371.3 2550 1405.7 2550 1422.8L2550 1440Z" fill="#9a2337"></path><path d="M1671 1440L1547 1422.8C1423 1405.7 1175 1371.3 1092.2 1337C1009.3 1302.7 1091.7 1268.3 1202.3 1234C1313 1199.7 1452 1165.3 1504.5 1131.2C1557 1097 1523 1063 1505.8 1028.8C1488.7 994.7 1488.3 960.3 1410.8 926C1333.3 891.7 1178.7 857.3 1126.7 823C1074.7 788.7 1125.3 754.3 1170.8 720C1216.3 685.7 1256.7 651.3 1295.3 617C1334 582.7 1371 548.3 1370.3 514C1369.7 479.7 1331.3 445.3 1310.2 411.2C1289 377 1285 343 1350.5 308.8C1416 274.7 1551 240.3 1524.2 206C1497.3 171.7 1308.7 137.3 1280.3 103C1252 68.7 1384 34.3 1450 17.2L1516 0L2550 0L2550 17.2C2550 34.3 2550 68.7 2550 103C2550 137.3 2550 171.7 2550 206C2550 240.3 2550 274.7 2550 308.8C2550 343 2550 377 2550 411.2C2550 445.3 2550 479.7 2550 514C2550 548.3 2550 582.7 2550 617C2550 651.3 2550 685.7 2550 720C2550 754.3 2550 788.7 2550 823C2550 857.3 2550 891.7 2550 926C2550 960.3 2550 994.7 2550 1028.8C2550 1063 2550 1097 2550 1131.2C2550 1165.3 2550 1199.7 2550 1234C2550 1268.3 2550 1302.7 2550 1337C2550 1371.3 2550 1405.7 2550 1422.8L2550 1440Z" fill="#8f163d"></path><path d="M1148 1440L1223.2 1422.8C1298.3 1405.7 1448.7 1371.3 1474.8 1337C1501 1302.7 1403 1268.3 1429.5 1234C1456 1199.7 1607 1165.3 1580.5 1131.2C1554 1097 1350 1063 1268.2 1028.8C1186.3 994.7 1226.7 960.3 1258 926C1289.3 891.7 1311.7 857.3 1391.5 823C1471.3 788.7 1608.7 754.3 1666.2 720C1723.7 685.7 1701.3 651.3 1645.5 617C1589.7 582.7 1500.3 548.3 1457.8 514C1415.3 479.7 1419.7 445.3 1456 411.2C1492.3 377 1560.7 343 1579 308.8C1597.3 274.7 1565.7 240.3 1528.3 206C1491 171.7 1448 137.3 1401.5 103C1355 68.7 1305 34.3 1280 17.2L1255 0L2550 0L2550 17.2C2550 34.3 2550 68.7 2550 103C2550 137.3 2550 171.7 2550 206C2550 240.3 2550 274.7 2550 308.8C2550 343 2550 377 2550 411.2C2550 445.3 2550 479.7 2550 514C2550 548.3 2550 582.7 2550 617C2550 651.3 2550 685.7 2550 720C2550 754.3 2550 788.7 2550 823C2550 857.3 2550 891.7 2550 926C2550 960.3 2550 994.7 2550 1028.8C2550 1063 2550 1097 2550 1131.2C2550 1165.3 2550 1199.7 2550 1234C2550 1268.3 2550 1302.7 2550 1337C2550 1371.3 2550 1405.7 2550 1422.8L2550 1440Z" fill="#830942"></path><path d="M1868 1440L1778.8 1422.8C1689.7 1405.7 1511.3 1371.3 1448.3 1337C1385.3 1302.7 1437.7 1268.3 1489.8 1234C1542 1199.7 1594 1165.3 1630 1131.2C1666 1097 1686 1063 1659.7 1028.8C1633.3 994.7 1560.7 960.3 1560.5 926C1560.3 891.7 1632.7 857.3 1674 823C1715.3 788.7 1725.7 754.3 1691 720C1656.3 685.7 1576.7 651.3 1511.3 617C1446 582.7 1395 548.3 1404.5 514C1414 479.7 1484 445.3 1502.8 411.2C1521.7 377 1489.3 343 1554.5 308.8C1619.7 274.7 1782.3 240.3 1823.5 206C1864.7 171.7 1784.3 137.3 1755.2 103C1726 68.7 1748 34.3 1759 17.2L1770 0L2550 0L2550 17.2C2550 34.3 2550 68.7 2550 103C2550 137.3 2550 171.7 2550 206C2550 240.3 2550 274.7 2550 308.8C2550 343 2550 377 2550 411.2C2550 445.3 2550 479.7 2550 514C2550 548.3 2550 582.7 2550 617C2550 651.3 2550 685.7 2550 720C2550 754.3 2550 788.7 2550 823C2550 857.3 2550 891.7 2550 926C2550 960.3 2550 994.7 2550 1028.8C2550 1063 2550 1097 2550 1131.2C2550 1165.3 2550 1199.7 2550 1234C2550 1268.3 2550 1302.7 2550 1337C2550 1371.3 2550 1405.7 2550 1422.8L2550 1440Z" fill="#760146"></path><path d="M1769 1440L1773.5 1422.8C1778 1405.7 1787 1371.3 1772.7 1337C1758.3 1302.7 1720.7 1268.3 1681.2 1234C1641.7 1199.7 1600.3 1165.3 1638.8 1131.2C1677.3 1097 1795.7 1063 1786.3 1028.8C1777 994.7 1640 960.3 1661 926C1682 891.7 1861 857.3 1870.7 823C1880.3 788.7 1720.7 754.3 1687 720C1653.3 685.7 1745.7 651.3 1826.5 617C1907.3 582.7 1976.7 548.3 1940 514C1903.3 479.7 1760.7 445.3 1687.2 411.2C1613.7 377 1609.3 343 1632.7 308.8C1656 274.7 1707 240.3 1739.3 206C1771.7 171.7 1785.3 137.3 1811.3 103C1837.3 68.7 1875.7 34.3 1894.8 17.2L1914 0L2550 0L2550 17.2C2550 34.3 2550 68.7 2550 103C2550 137.3 2550 171.7 2550 206C2550 240.3 2550 274.7 2550 308.8C2550 343 2550 377 2550 411.2C2550 445.3 2550 479.7 2550 514C2550 548.3 2550 582.7 2550 617C2550 651.3 2550 685.7 2550 720C2550 754.3 2550 788.7 2550 823C2550 857.3 2550 891.7 2550 926C2550 960.3 2550 994.7 2550 1028.8C2550 1063 2550 1097 2550 1131.2C2550 1165.3 2550 1199.7 2550 1234C2550 1268.3 2550 1302.7 2550 1337C2550 1371.3 2550 1405.7 2550 1422.8L2550 1440Z" fill="#66004a"></path><path d="M1876 1440L1907.2 1422.8C1938.3 1405.7 2000.7 1371.3 1990.7 1337C1980.7 1302.7 1898.3 1268.3 1900 1234C1901.7 1199.7 1987.3 1165.3 1961.8 1131.2C1936.3 1097 1799.7 1063 1784.5 1028.8C1769.3 994.7 1875.7 960.3 1941 926C2006.3 891.7 2030.7 857.3 1993.8 823C1957 788.7 1859 754.3 1857.2 720C1855.3 685.7 1949.7 651.3 1951.8 617C1954 582.7 1864 548.3 1853.5 514C1843 479.7 1912 445.3 1964.5 411.2C2017 377 2053 343 2025.7 308.8C1998.3 274.7 1907.7 240.3 1900.5 206C1893.3 171.7 1969.7 137.3 2007.3 103C2045 68.7 2044 34.3 2043.5 17.2L2043 0L2550 0L2550 17.2C2550 34.3 2550 68.7 2550 103C2550 137.3 2550 171.7 2550 206C2550 240.3 2550 274.7 2550 308.8C2550 343 2550 377 2550 411.2C2550 445.3 2550 479.7 2550 514C2550 548.3 2550 582.7 2550 617C2550 651.3 2550 685.7 2550 720C2550 754.3 2550 788.7 2550 823C2550 857.3 2550 891.7 2550 926C2550 960.3 2550 994.7 2550 1028.8C2550 1063 2550 1097 2550 1131.2C2550 1165.3 2550 1199.7 2550 1234C2550 1268.3 2550 1302.7 2550 1337C2550 1371.3 2550 1405.7 2550 1422.8L2550 1440Z" fill="#55024c"></path><path d="M1997 1440L1993.3 1422.8C1989.7 1405.7 1982.3 1371.3 1960.7 1337C1939 1302.7 1903 1268.3 1927.7 1234C1952.3 1199.7 2037.7 1165.3 2035.8 1131.2C2034 1097 1945 1063 1898.8 1028.8C1852.7 994.7 1849.3 960.3 1859.2 926C1869 891.7 1892 857.3 1930.7 823C1969.3 788.7 2023.7 754.3 2055.5 720C2087.3 685.7 2096.7 651.3 2071.8 617C2047 582.7 1988 548.3 2017 514C2046 479.7 2163 445.3 2177.5 411.2C2192 377 2104 343 2072.2 308.8C2040.3 274.7 2064.7 240.3 2059.7 206C2054.7 171.7 2020.3 137.3 1996.5 103C1972.7 68.7 1959.3 34.3 1952.7 17.2L1946 0L2550 0L2550 17.2C2550 34.3 2550 68.7 2550 103C2550 137.3 2550 171.7 2550 206C2550 240.3 2550 274.7 2550 308.8C2550 343 2550 377 2550 411.2C2550 445.3 2550 479.7 2550 514C2550 548.3 2550 582.7 2550 617C2550 651.3 2550 685.7 2550 720C2550 754.3 2550 788.7 2550 823C2550 857.3 2550 891.7 2550 926C2550 960.3 2550 994.7 2550 1028.8C2550 1063 2550 1097 2550 1131.2C2550 1165.3 2550 1199.7 2550 1234C2550 1268.3 2550 1302.7 2550 1337C2550 1371.3 2550 1405.7 2550 1422.8L2550 1440Z" fill="#42064c"></path><path d="M2306 1440L2290.3 1422.8C2274.7 1405.7 2243.3 1371.3 2259 1337C2274.7 1302.7 2337.3 1268.3 2320.2 1234C2303 1199.7 2206 1165.3 2152.2 1131.2C2098.3 1097 2087.7 1063 2120.8 1028.8C2154 994.7 2231 960.3 2272.8 926C2314.7 891.7 2321.3 857.3 2294.7 823C2268 788.7 2208 754.3 2197 720C2186 685.7 2224 651.3 2228.3 617C2232.7 582.7 2203.3 548.3 2182.3 514C2161.3 479.7 2148.7 445.3 2176 411.2C2203.3 377 2270.7 343 2285.3 308.8C2300 274.7 2262 240.3 2247.8 206C2233.7 171.7 2243.3 137.3 2253 103C2262.7 68.7 2272.3 34.3 2277.2 17.2L2282 0L2550 0L2550 17.2C2550 34.3 2550 68.7 2550 103C2550 137.3 2550 171.7 2550 206C2550 240.3 2550 274.7 2550 308.8C2550 343 2550 377 2550 411.2C2550 445.3 2550 479.7 2550 514C2550 548.3 2550 582.7 2550 617C2550 651.3 2550 685.7 2550 720C2550 754.3 2550 788.7 2550 823C2550 857.3 2550 891.7 2550 926C2550 960.3 2550 994.7 2550 1028.8C2550 1063 2550 1097 2550 1131.2C2550 1165.3 2550 1199.7 2550 1234C2550 1268.3 2550 1302.7 2550 1337C2550 1371.3 2550 1405.7 2550 1422.8L2550 1440Z" fill="#2d0a4c"></path><path d="M2458 1440L2452.8 1422.8C2447.7 1405.7 2437.3 1371.3 2409.7 1337C2382 1302.7 2337 1268.3 2322.5 1234C2308 1199.7 2324 1165.3 2327 1131.2C2330 1097 2320 1063 2299.8 1028.8C2279.7 994.7 2249.3 960.3 2280 926C2310.7 891.7 2402.3 857.3 2404.8 823C2407.3 788.7 2320.7 754.3 2287.3 720C2254 685.7 2274 651.3 2302.2 617C2330.3 582.7 2366.7 548.3 2376.5 514C2386.3 479.7 2369.7 445.3 2344.2 411.2C2318.7 377 2284.3 343 2269.2 308.8C2254 274.7 2258 240.3 2261 206C2264 171.7 2266 137.3 2273.7 103C2281.3 68.7 2294.7 34.3 2301.3 17.2L2308 0L2550 0L2550 17.2C2550 34.3 2550 68.7 2550 103C2550 137.3 2550 171.7 2550 206C2550 240.3 2550 274.7 2550 308.8C2550 343 2550 377 2550 411.2C2550 445.3 2550 479.7 2550 514C2550 548.3 2550 582.7 2550 617C2550 651.3 2550 685.7 2550 720C2550 754.3 2550 788.7 2550 823C2550 857.3 2550 891.7 2550 926C2550 960.3 2550 994.7 2550 1028.8C2550 1063 2550 1097 2550 1131.2C2550 1165.3 2550 1199.7 2550 1234C2550 1268.3 2550 1302.7 2550 1337C2550 1371.3 2550 1405.7 2550 1422.8L2550 1440Z" fill="#100c49"></path></svg>