<svg id="visual" viewBox="0 0 600 900" width="600" height="900" xmlns="http://www.w3.org/2000/svg" xmlns:xlink="http://www.w3.org/1999/xlink" version="1.1"><rect x="0" y="0" width="600" height="900" fill="#071422"></rect><path d="M0 507L7.2 505C14.3 503 28.7 499 43 515.3C57.3 531.7 71.7 568.3 86 591.7C100.3 615 114.7 625 128.8 632.5C143 640 157 645 171.2 646C185.3 647 199.7 644 214 619.3C228.3 594.7 242.7 548.3 257 550.8C271.3 553.3 285.7 604.7 300 629.7C314.3 654.7 328.7 653.3 343 618.2C357.3 583 371.7 514 386 488.5C400.3 463 414.7 481 428.8 520.3C443 559.7 457 620.3 471.2 642C485.3 663.7 499.7 646.3 514 614.7C528.3 583 542.7 537 557 500.3C571.3 463.7 585.7 436.3 592.8 422.7L600 409L600 0L592.8 0C585.7 0 571.3 0 557 0C542.7 0 528.3 0 514 0C499.7 0 485.3 0 471.2 0C457 0 443 0 428.8 0C414.7 0 400.3 0 386 0C371.7 0 357.3 0 343 0C328.7 0 314.3 0 300 0C285.7 0 271.3 0 257 0C242.7 0 228.3 0 214 0C199.7 0 185.3 0 171.2 0C157 0 143 0 128.8 0C114.7 0 100.3 0 86 0C71.7 0 57.3 0 43 0C28.7 0 14.3 0 7.2 0L0 0Z" fill="#100c49"></path><path d="M0 389L7.2 407.2C14.3 425.3 28.7 461.7 43 479.2C57.3 496.7 71.7 495.3 86 489.3C100.3 483.3 114.7 472.7 128.8 485.3C143 498 157 534 171.2 528C185.3 522 199.7 474 214 471.2C228.3 468.3 242.7 510.7 257 532.8C271.3 555 285.7 557 300 570.5C314.3 584 328.7 609 343 592.8C357.3 576.7 371.7 519.3 386 514.7C400.3 510 414.7 558 428.8 544C443 530 457 454 471.2 458C485.3 462 499.7 546 514 561.5C528.3 577 542.7 524 557 515.2C571.3 506.3 585.7 541.7 592.8 559.3L600 577L600 0L592.8 0C585.7 0 571.3 0 557 0C542.7 0 528.3 0 514 0C499.7 0 485.3 0 471.2 0C457 0 443 0 428.8 0C414.7 0 400.3 0 386 0C371.7 0 357.3 0 343 0C328.7 0 314.3 0 300 0C285.7 0 271.3 0 257 0C242.7 0 228.3 0 214 0C199.7 0 185.3 0 171.2 0C157 0 143 0 128.8 0C114.7 0 100.3 0 86 0C71.7 0 57.3 0 43 0C28.7 0 14.3 0 7.2 0L0 0Z" fill="#2d0a4c"></path><path d="M0 310L7.2 353.7C14.3 397.3 28.7 484.7 43 513.8C57.3 543 71.7 514 86 475C100.3 436 114.7 387 128.8 368.5C143 350 157 362 171.2 368C185.3 374 199.7 374 214 401.3C228.3 428.7 242.7 483.3 257 501.7C271.3 520 285.7 502 300 486C314.3 470 328.7 456 343 442.3C357.3 428.7 371.7 415.3 386 415.5C400.3 415.7 414.7 429.3 428.8 436.8C443 444.3 457 445.7 471.2 422.5C485.3 399.3 499.7 351.7 514 361.2C528.3 370.7 542.7 437.3 557 447.3C571.3 457.3 585.7 410.7 592.8 387.3L600 364L600 0L592.8 0C585.7 0 571.3 0 557 0C542.7 0 528.3 0 514 0C499.7 0 485.3 0 471.2 0C457 0 443 0 428.8 0C414.7 0 400.3 0 386 0C371.7 0 357.3 0 343 0C328.7 0 314.3 0 300 0C285.7 0 271.3 0 257 0C242.7 0 228.3 0 214 0C199.7 0 185.3 0 171.2 0C157 0 143 0 128.8 0C114.7 0 100.3 0 86 0C71.7 0 57.3 0 43 0C28.7 0 14.3 0 7.2 0L0 0Z" fill="#42064c"></path><path d="M0 494L7.2 467.5C14.3 441 28.7 388 43 378.8C57.3 369.7 71.7 404.3 86 395C100.3 385.7 114.7 332.3 128.8 341.7C143 351 157 423 171.2 451.8C185.3 480.7 199.7 466.3 214 455.3C228.3 444.3 242.7 436.7 257 408.5C271.3 380.3 285.7 331.7 300 311.3C314.3 291 328.7 299 343 318.7C357.3 338.3 371.7 369.7 386 384.7C400.3 399.7 414.7 398.3 428.8 385.5C443 372.7 457 348.3 471.2 341.8C485.3 335.3 499.7 346.7 514 360C528.3 373.3 542.7 388.7 557 405.2C571.3 421.7 585.7 439.3 592.8 448.2L600 457L600 0L592.8 0C585.7 0 571.3 0 557 0C542.7 0 528.3 0 514 0C499.7 0 485.3 0 471.2 0C457 0 443 0 428.8 0C414.7 0 400.3 0 386 0C371.7 0 357.3 0 343 0C328.7 0 314.3 0 300 0C285.7 0 271.3 0 257 0C242.7 0 228.3 0 214 0C199.7 0 185.3 0 171.2 0C157 0 143 0 128.8 0C114.7 0 100.3 0 86 0C71.7 0 57.3 0 43 0C28.7 0 14.3 0 7.2 0L0 0Z" fill="#55024c"></path><path d="M0 240L7.2 271.5C14.3 303 28.7 366 43 388.2C57.3 410.3 71.7 391.7 86 373.2C100.3 354.7 114.7 336.3 128.8 323.7C143 311 157 304 171.2 313.3C185.3 322.7 199.7 348.3 214 348.5C228.3 348.7 242.7 323.3 257 308.8C271.3 294.3 285.7 290.7 300 302.8C314.3 315 328.7 343 343 366C357.3 389 371.7 407 386 403.7C400.3 400.3 414.7 375.7 428.8 369C443 362.3 457 373.7 471.2 350.7C485.3 327.7 499.7 270.3 514 255.8C528.3 241.3 542.7 269.7 557 280C571.3 290.3 585.7 282.7 592.8 278.8L600 275L600 0L592.8 0C585.7 0 571.3 0 557 0C542.7 0 528.3 0 514 0C499.7 0 485.3 0 471.2 0C457 0 443 0 428.8 0C414.7 0 400.3 0 386 0C371.7 0 357.3 0 343 0C328.7 0 314.3 0 300 0C285.7 0 271.3 0 257 0C242.7 0 228.3 0 214 0C199.7 0 185.3 0 171.2 0C157 0 143 0 128.8 0C114.7 0 100.3 0 86 0C71.7 0 57.3 0 43 0C28.7 0 14.3 0 7.2 0L0 0Z" fill="#66004a"></path><path d="M0 275L7.2 273.3C14.3 271.7 28.7 268.3 43 273.5C57.3 278.7 71.7 292.3 86 306.3C100.3 320.3 114.7 334.7 128.8 321C143 307.3 157 265.7 171.2 269C185.3 272.3 199.7 320.7 214 313.2C228.3 305.7 242.7 242.3 257 238.8C271.3 235.3 285.7 291.7 300 303.7C314.3 315.7 328.7 283.3 343 254.8C357.3 226.3 371.7 201.7 386 214.5C400.3 227.3 414.7 277.7 428.8 303.7C443 329.7 457 331.3 471.2 323.2C485.3 315 499.7 297 514 285.5C528.3 274 542.7 269 557 259.8C571.3 250.7 585.7 237.3 592.8 230.7L600 224L600 0L592.8 0C585.7 0 571.3 0 557 0C542.7 0 528.3 0 514 0C499.7 0 485.3 0 471.2 0C457 0 443 0 428.8 0C414.7 0 400.3 0 386 0C371.7 0 357.3 0 343 0C328.7 0 314.3 0 300 0C285.7 0 271.3 0 257 0C242.7 0 228.3 0 214 0C199.7 0 185.3 0 171.2 0C157 0 143 0 128.8 0C114.7 0 100.3 0 86 0C71.7 0 57.3 0 43 0C28.7 0 14.3 0 7.2 0L0 0Z" fill="#760146"></path><path d="M0 237L7.2 226C14.3 215 28.7 193 43 196.7C57.3 200.3 71.7 229.7 86 229.2C100.3 228.7 114.7 198.3 128.8 207.3C143 216.3 157 264.7 171.2 270C185.3 275.3 199.7 237.7 214 214.5C228.3 191.3 242.7 182.7 257 195.7C271.3 208.7 285.7 243.3 300 244C314.3 244.7 328.7 211.3 343 210.5C357.3 209.7 371.7 241.3 386 245C400.3 248.7 414.7 224.3 428.8 205.8C443 187.3 457 174.7 471.2 184.3C485.3 194 499.7 226 514 228.5C528.3 231 542.7 204 557 190.7C571.3 177.3 585.7 177.7 592.8 177.8L600 178L600 0L592.8 0C585.7 0 571.3 0 557 0C542.7 0 528.3 0 514 0C499.7 0 485.3 0 471.2 0C457 0 443 0 428.8 0C414.7 0 400.3 0 386 0C371.7 0 357.3 0 343 0C328.7 0 314.3 0 300 0C285.7 0 271.3 0 257 0C242.7 0 228.3 0 214 0C199.7 0 185.3 0 171.2 0C157 0 143 0 128.8 0C114.7 0 100.3 0 86 0C71.7 0 57.3 0 43 0C28.7 0 14.3 0 7.2 0L0 0Z" fill="#830942"></path><path d="M0 195L7.2 196.2C14.3 197.3 28.7 199.7 43 207.2C57.3 214.7 71.7 227.3 86 218.7C100.3 210 114.7 180 128.8 180.7C143 181.3 157 212.7 171.2 229C185.3 245.3 199.7 246.7 214 243.2C228.3 239.7 242.7 231.3 257 217.7C271.3 204 285.7 185 300 173.8C314.3 162.7 328.7 159.3 343 168C357.3 176.7 371.7 197.3 386 187.2C400.3 177 414.7 136 428.8 131C443 126 457 157 471.2 168.2C485.3 179.3 499.7 170.7 514 172.3C528.3 174 542.7 186 557 194.3C571.3 202.7 585.7 207.3 592.8 209.7L600 212L600 0L592.8 0C585.7 0 571.3 0 557 0C542.7 0 528.3 0 514 0C499.7 0 485.3 0 471.2 0C457 0 443 0 428.8 0C414.7 0 400.3 0 386 0C371.7 0 357.3 0 343 0C328.7 0 314.3 0 300 0C285.7 0 271.3 0 257 0C242.7 0 228.3 0 214 0C199.7 0 185.3 0 171.2 0C157 0 143 0 128.8 0C114.7 0 100.3 0 86 0C71.7 0 57.3 0 43 0C28.7 0 14.3 0 7.2 0L0 0Z" fill="#8f163d"></path><path d="M0 85L7.2 90.7C14.3 96.3 28.7 107.7 43 102.2C57.3 96.7 71.7 74.3 86 80.3C100.3 86.3 114.7 120.7 128.8 139.7C143 158.7 157 162.3 171.2 150.7C185.3 139 199.7 112 214 97.3C228.3 82.7 242.7 80.3 257 89.7C271.3 99 285.7 120 300 123.8C314.3 127.7 328.7 114.3 343 112.8C357.3 111.3 371.7 121.7 386 129C400.3 136.3 414.7 140.7 428.8 131C443 121.3 457 97.7 471.2 92.5C485.3 87.3 499.7 100.7 514 105.7C528.3 110.7 542.7 107.3 557 104C571.3 100.7 585.7 97.3 592.8 95.7L600 94L600 0L592.8 0C585.7 0 571.3 0 557 0C542.7 0 528.3 0 514 0C499.7 0 485.3 0 471.2 0C457 0 443 0 428.8 0C414.7 0 400.3 0 386 0C371.7 0 357.3 0 343 0C328.7 0 314.3 0 300 0C285.7 0 271.3 0 257 0C242.7 0 228.3 0 214 0C199.7 0 185.3 0 171.2 0C157 0 143 0 128.8 0C114.7 0 100.3 0 86 0C71.7 0 57.3 0 43 0C28.7 0 14.3 0 7.2 0L0 0Z" fill="#9a2337"></path><path d="M0 32L7.2 33.8C14.3 35.7 28.7 39.3 43 49.2C57.3 59 71.7 75 86 80C100.3 85 114.7 79 128.8 77.8C143 76.7 157 80.3 171.2 87.5C185.3 94.7 199.7 105.3 214 94.5C228.3 83.7 242.7 51.3 257 50.5C271.3 49.7 285.7 80.3 300 92.2C314.3 104 328.7 97 343 87C357.3 77 371.7 64 386 60.5C400.3 57 414.7 63 428.8 72C443 81 457 93 471.2 98.3C485.3 103.7 499.7 102.3 514 101.3C528.3 100.3 542.7 99.7 557 97C571.3 94.3 585.7 89.7 592.8 87.3L600 85L600 0L592.8 0C585.7 0 571.3 0 557 0C542.7 0 528.3 0 514 0C499.7 0 485.3 0 471.2 0C457 0 443 0 428.8 0C414.7 0 400.3 0 386 0C371.7 0 357.3 0 343 0C328.7 0 314.3 0 300 0C285.7 0 271.3 0 257 0C242.7 0 228.3 0 214 0C199.7 0 185.3 0 171.2 0C157 0 143 0 128.8 0C114.7 0 100.3 0 86 0C71.7 0 57.3 0 43 0C28.7 0 14.3 0 7.2 0L0 0Z" fill="#a23131"></path></svg>