<svg id="visual" viewBox="0 0 2550 1440" width="2550" height="1440" xmlns="http://www.w3.org/2000/svg" xmlns:xlink="http://www.w3.org/1999/xlink" version="1.1"><path d="M2371 1440L2447 1440L2447 1375L2371 1375L2371 1309L2473 1309L2473 1244L2447 1244L2447 1178L2396 1178L2396 1113L2473 1113L2473 1047L2498 1047L2498 982L2498 982L2498 916L2371 916L2371 851L2396 851L2396 785L2371 785L2371 720L2498 720L2498 655L2447 655L2447 589L2498 589L2498 524L2396 524L2396 458L2422 458L2422 393L2498 393L2498 327L2371 327L2371 262L2473 262L2473 196L2447 196L2447 131L2422 131L2422 65L2498 65L2498 0L2550 0L2550 65L2550 65L2550 131L2550 131L2550 196L2550 196L2550 262L2550 262L2550 327L2550 327L2550 393L2550 393L2550 458L2550 458L2550 524L2550 524L2550 589L2550 589L2550 655L2550 655L2550 720L2550 720L2550 785L2550 785L2550 851L2550 851L2550 916L2550 916L2550 982L2550 982L2550 1047L2550 1047L2550 1113L2550 1113L2550 1178L2550 1178L2550 1244L2550 1244L2550 1309L2550 1309L2550 1375L2550 1375L2550 1440L2550 1440Z" fill="#a23131"></path><path d="M1682 1440L1835 1440L1835 1375L1733 1375L1733 1309L2192 1309L2192 1244L2116 1244L2116 1178L2141 1178L2141 1113L2218 1113L2218 1047L2243 1047L2243 982L1912 982L1912 916L2141 916L2141 851L1988 851L1988 785L1912 785L1912 720L1988 720L1988 655L1937 655L1937 589L1784 589L1784 524L2090 524L2090 458L1758 458L1758 393L2014 393L2014 327L2039 327L2039 262L2141 262L2141 196L1937 196L1937 131L1861 131L1861 65L2167 65L2167 0L2499 0L2499 65L2423 65L2423 131L2448 131L2448 196L2474 196L2474 262L2372 262L2372 327L2499 327L2499 393L2423 393L2423 458L2397 458L2397 524L2499 524L2499 589L2448 589L2448 655L2499 655L2499 720L2372 720L2372 785L2397 785L2397 851L2372 851L2372 916L2499 916L2499 982L2499 982L2499 1047L2474 1047L2474 1113L2397 1113L2397 1178L2448 1178L2448 1244L2474 1244L2474 1309L2372 1309L2372 1375L2448 1375L2448 1440L2372 1440Z" fill="#9b2636"></path><path d="M1631 1440L1707 1440L1707 1375L1631 1375L1631 1309L2039 1309L2039 1244L2065 1244L2065 1178L2039 1178L2039 1113L2116 1113L2116 1047L2116 1047L2116 982L1784 982L1784 916L2014 916L2014 851L1861 851L1861 785L1861 785L1861 720L1886 720L1886 655L1835 655L1835 589L1682 589L1682 524L1937 524L1937 458L1682 458L1682 393L1963 393L1963 327L1886 327L1886 262L2065 262L2065 196L1835 196L1835 131L1733 131L1733 65L2014 65L2014 0L2168 0L2168 65L1862 65L1862 131L1938 131L1938 196L2142 196L2142 262L2040 262L2040 327L2015 327L2015 393L1759 393L1759 458L2091 458L2091 524L1785 524L1785 589L1938 589L1938 655L1989 655L1989 720L1913 720L1913 785L1989 785L1989 851L2142 851L2142 916L1913 916L1913 982L2244 982L2244 1047L2219 1047L2219 1113L2142 1113L2142 1178L2117 1178L2117 1244L2193 1244L2193 1309L1734 1309L1734 1375L1836 1375L1836 1440L1683 1440Z" fill="#931b3b"></path><path d="M1555 1440L1529 1440L1529 1375L1427 1375L1427 1309L1861 1309L1861 1244L1886 1244L1886 1178L1835 1178L1835 1113L1937 1113L1937 1047L2014 1047L2014 982L1606 982L1606 916L1835 916L1835 851L1758 851L1758 785L1682 785L1682 720L1784 720L1784 655L1758 655L1758 589L1504 589L1504 524L1758 524L1758 458L1606 458L1606 393L1861 393L1861 327L1784 327L1784 262L1861 262L1861 196L1733 196L1733 131L1555 131L1555 65L1937 65L1937 0L2015 0L2015 65L1734 65L1734 131L1836 131L1836 196L2066 196L2066 262L1887 262L1887 327L1964 327L1964 393L1683 393L1683 458L1938 458L1938 524L1683 524L1683 589L1836 589L1836 655L1887 655L1887 720L1862 720L1862 785L1862 785L1862 851L2015 851L2015 916L1785 916L1785 982L2117 982L2117 1047L2117 1047L2117 1113L2040 1113L2040 1178L2066 1178L2066 1244L2040 1244L2040 1309L1632 1309L1632 1375L1708 1375L1708 1440L1632 1440Z" fill="#8a103f"></path><path d="M1453 1440L1427 1440L1427 1375L1376 1375L1376 1309L1784 1309L1784 1244L1835 1244L1835 1178L1784 1178L1784 1113L1810 1113L1810 1047L1886 1047L1886 982L1529 982L1529 916L1733 916L1733 851L1682 851L1682 785L1580 785L1580 720L1733 720L1733 655L1707 655L1707 589L1427 589L1427 524L1682 524L1682 458L1478 458L1478 393L1784 393L1784 327L1657 327L1657 262L1784 262L1784 196L1631 196L1631 131L1427 131L1427 65L1886 65L1886 0L1938 0L1938 65L1556 65L1556 131L1734 131L1734 196L1862 196L1862 262L1785 262L1785 327L1862 327L1862 393L1607 393L1607 458L1759 458L1759 524L1505 524L1505 589L1759 589L1759 655L1785 655L1785 720L1683 720L1683 785L1759 785L1759 851L1836 851L1836 916L1607 916L1607 982L2015 982L2015 1047L1938 1047L1938 1113L1836 1113L1836 1178L1887 1178L1887 1244L1862 1244L1862 1309L1428 1309L1428 1375L1530 1375L1530 1440L1556 1440Z" fill="#800643"></path><path d="M1198 1440L1147 1440L1147 1375L1147 1375L1147 1309L1657 1309L1657 1244L1555 1244L1555 1178L1504 1178L1504 1113L1555 1113L1555 1047L1580 1047L1580 982L1427 982L1427 916L1631 916L1631 851L1504 851L1504 785L1453 785L1453 720L1453 720L1453 655L1351 655L1351 589L1274 589L1274 524L1402 524L1402 458L1300 458L1300 393L1580 393L1580 327L1478 327L1478 262L1453 262L1453 196L1300 196L1300 131L1070 131L1070 65L1631 65L1631 0L1887 0L1887 65L1428 65L1428 131L1632 131L1632 196L1785 196L1785 262L1658 262L1658 327L1785 327L1785 393L1479 393L1479 458L1683 458L1683 524L1428 524L1428 589L1708 589L1708 655L1734 655L1734 720L1581 720L1581 785L1683 785L1683 851L1734 851L1734 916L1530 916L1530 982L1887 982L1887 1047L1811 1047L1811 1113L1785 1113L1785 1178L1836 1178L1836 1244L1785 1244L1785 1309L1377 1309L1377 1375L1428 1375L1428 1440L1454 1440Z" fill="#740147"></path><path d="M1045 1440L1045 1440L1045 1375L1019 1375L1019 1309L1504 1309L1504 1244L1478 1244L1478 1178L1300 1178L1300 1113L1478 1113L1478 1047L1453 1047L1453 982L1351 982L1351 916L1504 916L1504 851L1325 851L1325 785L1249 785L1249 720L1198 720L1198 655L1223 655L1223 589L1045 589L1045 524L1274 524L1274 458L1198 458L1198 393L1504 393L1504 327L1300 327L1300 262L1274 262L1274 196L1070 196L1070 131L892 131L892 65L1427 65L1427 0L1632 0L1632 65L1071 65L1071 131L1301 131L1301 196L1454 196L1454 262L1479 262L1479 327L1581 327L1581 393L1301 393L1301 458L1403 458L1403 524L1275 524L1275 589L1352 589L1352 655L1454 655L1454 720L1454 720L1454 785L1505 785L1505 851L1632 851L1632 916L1428 916L1428 982L1581 982L1581 1047L1556 1047L1556 1113L1505 1113L1505 1178L1556 1178L1556 1244L1658 1244L1658 1309L1148 1309L1148 1375L1148 1375L1148 1440L1199 1440Z" fill="#670049"></path><path d="M764 1440L586 1440L586 1375L764 1375L764 1309L840 1309L840 1244L994 1244L994 1178L688 1178L688 1113L662 1113L662 1047L892 1047L892 982L764 982L764 916L764 916L764 851L637 851L637 785L688 785L688 720L688 720L688 655L815 655L815 589L688 589L688 524L688 524L688 458L637 458L637 393L815 393L815 327L790 327L790 262L790 262L790 196L764 196L764 131L458 131L458 65L688 65L688 0L1428 0L1428 65L893 65L893 131L1071 131L1071 196L1275 196L1275 262L1301 262L1301 327L1505 327L1505 393L1199 393L1199 458L1275 458L1275 524L1046 524L1046 589L1224 589L1224 655L1199 655L1199 720L1250 720L1250 785L1326 785L1326 851L1505 851L1505 916L1352 916L1352 982L1454 982L1454 1047L1479 1047L1479 1113L1301 1113L1301 1178L1479 1178L1479 1244L1505 1244L1505 1309L1020 1309L1020 1375L1046 1375L1046 1440L1046 1440Z" fill="#5a014b"></path><path d="M688 1440L509 1440L509 1375L713 1375L713 1309L790 1309L790 1244L840 1244L840 1178L637 1178L637 1113L586 1113L586 1047L739 1047L739 982L637 982L637 916L713 916L713 851L586 851L586 785L560 785L560 720L637 720L637 655L713 655L713 589L586 589L586 524L611 524L611 458L560 458L560 393L662 393L662 327L713 327L713 262L713 262L713 196L611 196L611 131L331 131L331 65L534 65L534 0L689 0L689 65L459 65L459 131L765 131L765 196L791 196L791 262L791 262L791 327L816 327L816 393L638 393L638 458L689 458L689 524L689 524L689 589L816 589L816 655L689 655L689 720L689 720L689 785L638 785L638 851L765 851L765 916L765 916L765 982L893 982L893 1047L663 1047L663 1113L689 1113L689 1178L995 1178L995 1244L841 1244L841 1309L765 1309L765 1375L587 1375L587 1440L765 1440Z" fill="#4b044c"></path><path d="M458 1440L433 1440L433 1375L509 1375L509 1309L637 1309L637 1244L637 1244L637 1178L483 1178L483 1113L458 1113L458 1047L586 1047L586 982L433 982L433 916L586 916L586 851L483 851L483 785L433 785L433 720L458 720L458 655L534 655L534 589L509 589L509 524L509 524L509 458L483 458L483 393L509 393L509 327L534 327L534 262L534 262L534 196L483 196L483 131L254 131L254 65L458 65L458 0L535 0L535 65L332 65L332 131L612 131L612 196L714 196L714 262L714 262L714 327L663 327L663 393L561 393L561 458L612 458L612 524L587 524L587 589L714 589L714 655L638 655L638 720L561 720L561 785L587 785L587 851L714 851L714 916L638 916L638 982L740 982L740 1047L587 1047L587 1113L638 1113L638 1178L841 1178L841 1244L791 1244L791 1309L714 1309L714 1375L510 1375L510 1440L689 1440Z" fill="#3b074c"></path><path d="M228 1440L127 1440L127 1375L127 1375L127 1309L228 1309L228 1244L279 1244L279 1178L101 1178L101 1113L254 1113L254 1047L152 1047L152 982L254 982L254 916L177 916L177 851L254 851L254 785L127 785L127 720L101 720L101 655L228 655L228 589L177 589L177 524L203 524L203 458L127 458L127 393L228 393L228 327L101 327L101 262L203 262L203 196L101 196L101 131L76 131L76 65L203 65L203 0L459 0L459 65L255 65L255 131L484 131L484 196L535 196L535 262L535 262L535 327L510 327L510 393L484 393L484 458L510 458L510 524L510 524L510 589L535 589L535 655L459 655L459 720L434 720L434 785L484 785L484 851L587 851L587 916L434 916L434 982L587 982L587 1047L459 1047L459 1113L484 1113L484 1178L638 1178L638 1244L638 1244L638 1309L510 1309L510 1375L434 1375L434 1440L459 1440Z" fill="#280a4b"></path><path d="M0 1440L0 1440L0 1375L0 1375L0 1309L0 1309L0 1244L0 1244L0 1178L0 1178L0 1113L0 1113L0 1047L0 1047L0 982L0 982L0 916L0 916L0 851L0 851L0 785L0 785L0 720L0 720L0 655L0 655L0 589L0 589L0 524L0 524L0 458L0 458L0 393L0 393L0 327L0 327L0 262L0 262L0 196L0 196L0 131L0 131L0 65L0 65L0 0L204 0L204 65L77 65L77 131L102 131L102 196L204 196L204 262L102 262L102 327L229 327L229 393L128 393L128 458L204 458L204 524L178 524L178 589L229 589L229 655L102 655L102 720L128 720L128 785L255 785L255 851L178 851L178 916L255 916L255 982L153 982L153 1047L255 1047L255 1113L102 1113L102 1178L280 1178L280 1244L229 1244L229 1309L128 1309L128 1375L128 1375L128 1440L229 1440Z" fill="#100c49"></path></svg>