<svg id="visual" viewBox="0 0 450 900" width="450" height="900" xmlns="http://www.w3.org/2000/svg" xmlns:xlink="http://www.w3.org/1999/xlink" version="1.1"><path d="M0 64L20 64L20 37L41 37L41 64L61 64L61 28L82 28L82 37L102 37L102 55L123 55L123 28L143 28L143 19L164 19L164 19L184 19L184 64L205 64L205 55L225 55L225 64L245 64L245 19L266 19L266 37L286 37L286 19L307 19L307 55L327 55L327 46L348 46L348 19L368 19L368 64L389 64L389 28L409 28L409 37L430 37L430 46L450 46L450 19L450 0L450 0L430 0L430 0L409 0L409 0L389 0L389 0L368 0L368 0L348 0L348 0L327 0L327 0L307 0L307 0L286 0L286 0L266 0L266 0L245 0L245 0L225 0L225 0L205 0L205 0L184 0L184 0L164 0L164 0L143 0L143 0L123 0L123 0L102 0L102 0L82 0L82 0L61 0L61 0L41 0L41 0L20 0L20 0L0 0Z" fill="#a23131"></path><path d="M0 307L20 307L20 253L41 253L41 289L61 289L61 127L82 127L82 154L102 154L102 145L123 145L123 118L143 118L143 109L164 109L164 226L184 226L184 145L205 145L205 199L225 199L225 226L245 226L245 199L266 199L266 217L286 217L286 271L307 271L307 163L327 163L327 280L348 280L348 190L368 190L368 181L389 181L389 145L409 145L409 217L430 217L430 244L450 244L450 136L450 17L450 44L430 44L430 35L409 35L409 26L389 26L389 62L368 62L368 17L348 17L348 44L327 44L327 53L307 53L307 17L286 17L286 35L266 35L266 17L245 17L245 62L225 62L225 53L205 53L205 62L184 62L184 17L164 17L164 17L143 17L143 26L123 26L123 53L102 53L102 35L82 35L82 26L61 26L61 62L41 62L41 35L20 35L20 62L0 62Z" fill="#9b2636"></path><path d="M0 325L20 325L20 298L41 298L41 325L61 325L61 181L82 181L82 172L102 172L102 181L123 181L123 154L143 154L143 154L164 154L164 271L184 271L184 190L205 190L205 244L225 244L225 244L245 244L245 235L266 235L266 253L286 253L286 307L307 307L307 217L327 217L327 307L348 307L348 208L368 208L368 235L389 235L389 172L409 172L409 253L430 253L430 289L450 289L450 190L450 134L450 242L430 242L430 215L409 215L409 143L389 143L389 179L368 179L368 188L348 188L348 278L327 278L327 161L307 161L307 269L286 269L286 215L266 215L266 197L245 197L245 224L225 224L225 197L205 197L205 143L184 143L184 224L164 224L164 107L143 107L143 116L123 116L123 143L102 143L102 152L82 152L82 125L61 125L61 287L41 287L41 251L20 251L20 305L0 305Z" fill="#931b3b"></path><path d="M0 352L20 352L20 361L41 361L41 397L61 397L61 244L82 244L82 235L102 235L102 253L123 253L123 217L143 217L143 190L164 190L164 334L184 334L184 253L205 253L205 280L225 280L225 307L245 307L245 271L266 271L266 280L286 280L286 370L307 370L307 280L327 280L327 334L348 334L348 244L368 244L368 271L389 271L389 244L409 244L409 289L430 289L430 352L450 352L450 217L450 188L450 287L430 287L430 251L409 251L409 170L389 170L389 233L368 233L368 206L348 206L348 305L327 305L327 215L307 215L307 305L286 305L286 251L266 251L266 233L245 233L245 242L225 242L225 242L205 242L205 188L184 188L184 269L164 269L164 152L143 152L143 152L123 152L123 179L102 179L102 170L82 170L82 179L61 179L61 323L41 323L41 296L20 296L20 323L0 323Z" fill="#8a103f"></path><path d="M0 388L20 388L20 397L41 397L41 415L61 415L61 271L82 271L82 253L102 253L102 271L123 271L123 262L143 262L143 235L164 235L164 361L184 361L184 289L205 289L205 307L225 307L225 343L245 343L245 289L266 289L266 298L286 298L286 397L307 397L307 307L327 307L327 379L348 379L348 271L368 271L368 316L389 316L389 271L409 271L409 325L430 325L430 397L450 397L450 235L450 215L450 350L430 350L430 287L409 287L409 242L389 242L389 269L368 269L368 242L348 242L348 332L327 332L327 278L307 278L307 368L286 368L286 278L266 278L266 269L245 269L245 305L225 305L225 278L205 278L205 251L184 251L184 332L164 332L164 188L143 188L143 215L123 215L123 251L102 251L102 233L82 233L82 242L61 242L61 395L41 395L41 359L20 359L20 350L0 350Z" fill="#800643"></path><path d="M0 478L20 478L20 496L41 496L41 496L61 496L61 316L82 316L82 352L102 352L102 370L123 370L123 352L143 352L143 343L164 343L164 397L184 397L184 325L205 325L205 370L225 370L225 388L245 388L245 388L266 388L266 424L286 424L286 451L307 451L307 406L327 406L327 442L348 442L348 343L368 343L368 379L389 379L389 388L409 388L409 442L430 442L430 523L450 523L450 325L450 233L450 395L430 395L430 323L409 323L409 269L389 269L389 314L368 314L368 269L348 269L348 377L327 377L327 305L307 305L307 395L286 395L286 296L266 296L266 287L245 287L245 341L225 341L225 305L205 305L205 287L184 287L184 359L164 359L164 233L143 233L143 260L123 260L123 269L102 269L102 251L82 251L82 269L61 269L61 413L41 413L41 395L20 395L20 386L0 386Z" fill="#740147"></path><path d="M0 532L20 532L20 532L41 532L41 541L61 541L61 370L82 370L82 379L102 379L102 442L123 442L123 379L143 379L143 388L164 388L164 424L184 424L184 370L205 370L205 433L225 433L225 460L245 460L245 478L266 478L266 469L286 469L286 532L307 532L307 451L327 451L327 478L348 478L348 370L368 370L368 442L389 442L389 451L409 451L409 523L430 523L430 586L450 586L450 397L450 323L450 521L430 521L430 440L409 440L409 386L389 386L389 377L368 377L368 341L348 341L348 440L327 440L327 404L307 404L307 449L286 449L286 422L266 422L266 386L245 386L245 386L225 386L225 368L205 368L205 323L184 323L184 395L164 395L164 341L143 341L143 350L123 350L123 368L102 368L102 350L82 350L82 314L61 314L61 494L41 494L41 494L20 494L20 476L0 476Z" fill="#670049"></path><path d="M0 631L20 631L20 694L41 694L41 631L61 631L61 604L82 604L82 550L102 550L102 658L123 658L123 667L143 667L143 586L164 586L164 631L184 631L184 631L205 631L205 676L225 676L225 658L245 658L245 658L266 658L266 613L286 613L286 658L307 658L307 658L327 658L327 676L348 676L348 613L368 613L368 622L389 622L389 622L409 622L409 631L430 631L430 739L450 739L450 658L450 395L450 584L430 584L430 521L409 521L409 449L389 449L389 440L368 440L368 368L348 368L348 476L327 476L327 449L307 449L307 530L286 530L286 467L266 467L266 476L245 476L245 458L225 458L225 431L205 431L205 368L184 368L184 422L164 422L164 386L143 386L143 377L123 377L123 440L102 440L102 377L82 377L82 368L61 368L61 539L41 539L41 530L20 530L20 530L0 530Z" fill="#5a014b"></path><path d="M0 658L20 658L20 721L41 721L41 649L61 649L61 622L82 622L82 604L102 604L102 676L123 676L123 694L143 694L143 640L164 640L164 676L184 676L184 649L205 649L205 694L225 694L225 703L245 703L245 676L266 676L266 649L286 649L286 694L307 694L307 685L327 685L327 703L348 703L348 667L368 667L368 649L389 649L389 649L409 649L409 685L430 685L430 784L450 784L450 712L450 656L450 737L430 737L430 629L409 629L409 620L389 620L389 620L368 620L368 611L348 611L348 674L327 674L327 656L307 656L307 656L286 656L286 611L266 611L266 656L245 656L245 656L225 656L225 674L205 674L205 629L184 629L184 629L164 629L164 584L143 584L143 665L123 665L123 656L102 656L102 548L82 548L82 602L61 602L61 629L41 629L41 692L20 692L20 629L0 629Z" fill="#4b044c"></path><path d="M0 739L20 739L20 748L41 748L41 721L61 721L61 676L82 676L82 676L102 676L102 730L123 730L123 739L143 739L143 694L164 694L164 748L184 748L184 694L205 694L205 730L225 730L225 748L245 748L245 739L266 739L266 712L286 712L286 721L307 721L307 721L327 721L327 730L348 730L348 721L368 721L368 712L389 712L389 712L409 712L409 730L430 730L430 811L450 811L450 739L450 710L450 782L430 782L430 683L409 683L409 647L389 647L389 647L368 647L368 665L348 665L348 701L327 701L327 683L307 683L307 692L286 692L286 647L266 647L266 674L245 674L245 701L225 701L225 692L205 692L205 647L184 647L184 674L164 674L164 638L143 638L143 692L123 692L123 674L102 674L102 602L82 602L82 620L61 620L61 647L41 647L41 719L20 719L20 656L0 656Z" fill="#3b074c"></path><path d="M0 820L20 820L20 856L41 856L41 856L61 856L61 820L82 820L82 802L102 802L102 865L123 865L123 811L143 811L143 847L164 847L164 811L184 811L184 838L205 838L205 811L225 811L225 856L245 856L245 865L266 865L266 820L286 820L286 838L307 838L307 829L327 829L327 856L348 856L348 820L368 820L368 865L389 865L389 829L409 829L409 865L430 865L430 874L450 874L450 829L450 737L450 809L430 809L430 728L409 728L409 710L389 710L389 710L368 710L368 719L348 719L348 728L327 728L327 719L307 719L307 719L286 719L286 710L266 710L266 737L245 737L245 746L225 746L225 728L205 728L205 692L184 692L184 746L164 746L164 692L143 692L143 737L123 737L123 728L102 728L102 674L82 674L82 674L61 674L61 719L41 719L41 746L20 746L20 737L0 737Z" fill="#280a4b"></path><path d="M0 901L20 901L20 901L41 901L41 901L61 901L61 901L82 901L82 901L102 901L102 901L123 901L123 901L143 901L143 901L164 901L164 901L184 901L184 901L205 901L205 901L225 901L225 901L245 901L245 901L266 901L266 901L286 901L286 901L307 901L307 901L327 901L327 901L348 901L348 901L368 901L368 901L389 901L389 901L409 901L409 901L430 901L430 901L450 901L450 901L450 827L450 872L430 872L430 863L409 863L409 827L389 827L389 863L368 863L368 818L348 818L348 854L327 854L327 827L307 827L307 836L286 836L286 818L266 818L266 863L245 863L245 854L225 854L225 809L205 809L205 836L184 836L184 809L164 809L164 845L143 845L143 809L123 809L123 863L102 863L102 800L82 800L82 818L61 818L61 854L41 854L41 854L20 854L20 818L0 818Z" fill="#100c49"></path></svg>