<svg id="visual" viewBox="0 0 675 900" width="675" height="900" xmlns="http://www.w3.org/2000/svg" xmlns:xlink="http://www.w3.org/1999/xlink" version="1.1"><path d="M627 900L647 900L647 859L627 859L627 818L654 818L654 777L647 777L647 736L634 736L634 695L654 695L654 655L661 655L661 614L661 614L661 573L627 573L627 532L634 532L634 491L627 491L627 450L661 450L661 409L647 409L647 368L661 368L661 327L634 327L634 286L640 286L640 245L661 245L661 205L627 205L627 164L654 164L654 123L647 123L647 82L640 82L640 41L661 41L661 0L675 0L675 41L675 41L675 82L675 82L675 123L675 123L675 164L675 164L675 205L675 205L675 245L675 245L675 286L675 286L675 327L675 327L675 368L675 368L675 409L675 409L675 450L675 450L675 491L675 491L675 532L675 532L675 573L675 573L675 614L675 614L675 655L675 655L675 695L675 695L675 736L675 736L675 777L675 777L675 818L675 818L675 859L675 859L675 900L675 900Z" fill="#a23131"></path><path d="M444 900L485 900L485 859L458 859L458 818L580 818L580 777L559 777L559 736L566 736L566 695L586 695L586 655L593 655L593 614L505 614L505 573L566 573L566 532L526 532L526 491L505 491L505 450L526 450L526 409L512 409L512 368L471 368L471 327L553 327L553 286L465 286L465 245L532 245L532 205L539 205L539 164L566 164L566 123L512 123L512 82L492 82L492 41L573 41L573 0L662 0L662 41L641 41L641 82L648 82L648 123L655 123L655 164L628 164L628 205L662 205L662 245L641 245L641 286L635 286L635 327L662 327L662 368L648 368L648 409L662 409L662 450L628 450L628 491L635 491L635 532L628 532L628 573L662 573L662 614L662 614L662 655L655 655L655 695L635 695L635 736L648 736L648 777L655 777L655 818L628 818L628 859L648 859L648 900L628 900Z" fill="#9b2636"></path><path d="M431 900L451 900L451 859L431 859L431 818L539 818L539 777L546 777L546 736L539 736L539 695L559 695L559 655L559 655L559 614L471 614L471 573L532 573L532 532L492 532L492 491L492 491L492 450L499 450L499 409L485 409L485 368L444 368L444 327L512 327L512 286L444 286L444 245L519 245L519 205L499 205L499 164L546 164L546 123L485 123L485 82L458 82L458 41L532 41L532 0L574 0L574 41L493 41L493 82L513 82L513 123L567 123L567 164L540 164L540 205L533 205L533 245L466 245L466 286L554 286L554 327L472 327L472 368L513 368L513 409L527 409L527 450L506 450L506 491L527 491L527 532L567 532L567 573L506 573L506 614L594 614L594 655L587 655L587 695L567 695L567 736L560 736L560 777L581 777L581 818L459 818L459 859L486 859L486 900L445 900Z" fill="#931b3b"></path><path d="M411 900L404 900L404 859L377 859L377 818L492 818L492 777L499 777L499 736L485 736L485 695L512 695L512 655L532 655L532 614L424 614L424 573L485 573L485 532L465 532L465 491L444 491L444 450L471 450L471 409L465 409L465 368L397 368L397 327L465 327L465 286L424 286L424 245L492 245L492 205L471 205L471 164L492 164L492 123L458 123L458 82L411 82L411 41L512 41L512 0L533 0L533 41L459 41L459 82L486 82L486 123L547 123L547 164L500 164L500 205L520 205L520 245L445 245L445 286L513 286L513 327L445 327L445 368L486 368L486 409L500 409L500 450L493 450L493 491L493 491L493 532L533 532L533 573L472 573L472 614L560 614L560 655L560 655L560 695L540 695L540 736L547 736L547 777L540 777L540 818L432 818L432 859L452 859L452 900L432 900Z" fill="#8a103f"></path><path d="M384 900L377 900L377 859L364 859L364 818L471 818L471 777L485 777L485 736L471 736L471 695L478 695L478 655L499 655L499 614L404 614L404 573L458 573L458 532L444 532L444 491L418 491L418 450L458 450L458 409L451 409L451 368L377 368L377 327L444 327L444 286L391 286L391 245L471 245L471 205L438 205L438 164L471 164L471 123L431 123L431 82L377 82L377 41L499 41L499 0L513 0L513 41L412 41L412 82L459 82L459 123L493 123L493 164L472 164L472 205L493 205L493 245L425 245L425 286L466 286L466 327L398 327L398 368L466 368L466 409L472 409L472 450L445 450L445 491L466 491L466 532L486 532L486 573L425 573L425 614L533 614L533 655L513 655L513 695L486 695L486 736L500 736L500 777L493 777L493 818L378 818L378 859L405 859L405 900L412 900Z" fill="#800643"></path><path d="M316 900L303 900L303 859L303 859L303 818L438 818L438 777L411 777L411 736L397 736L397 695L411 695L411 655L418 655L418 614L377 614L377 573L431 573L431 532L397 532L397 491L384 491L384 450L384 450L384 409L357 409L357 368L337 368L337 327L370 327L370 286L343 286L343 245L418 245L418 205L391 205L391 164L384 164L384 123L343 123L343 82L283 82L283 41L431 41L431 0L500 0L500 41L378 41L378 82L432 82L432 123L472 123L472 164L439 164L439 205L472 205L472 245L392 245L392 286L445 286L445 327L378 327L378 368L452 368L452 409L459 409L459 450L419 450L419 491L445 491L445 532L459 532L459 573L405 573L405 614L500 614L500 655L479 655L479 695L472 695L472 736L486 736L486 777L472 777L472 818L365 818L365 859L378 859L378 900L385 900Z" fill="#740147"></path><path d="M276 900L276 900L276 859L269 859L269 818L397 818L397 777L391 777L391 736L343 736L343 695L391 695L391 655L384 655L384 614L357 614L357 573L397 573L397 532L350 532L350 491L330 491L330 450L316 450L316 409L323 409L323 368L276 368L276 327L337 327L337 286L316 286L316 245L397 245L397 205L343 205L343 164L337 164L337 123L283 123L283 82L235 82L235 41L377 41L377 0L432 0L432 41L284 41L284 82L344 82L344 123L385 123L385 164L392 164L392 205L419 205L419 245L344 245L344 286L371 286L371 327L338 327L338 368L358 368L358 409L385 409L385 450L385 450L385 491L398 491L398 532L432 532L432 573L378 573L378 614L419 614L419 655L412 655L412 695L398 695L398 736L412 736L412 777L439 777L439 818L304 818L304 859L304 859L304 900L317 900Z" fill="#670049"></path><path d="M202 900L154 900L154 859L202 859L202 818L222 818L222 777L262 777L262 736L181 736L181 695L175 695L175 655L235 655L235 614L202 614L202 573L202 573L202 532L168 532L168 491L181 491L181 450L181 450L181 409L215 409L215 368L181 368L181 327L181 327L181 286L168 286L168 245L215 245L215 205L208 205L208 164L208 164L208 123L202 123L202 82L121 82L121 41L181 41L181 0L378 0L378 41L236 41L236 82L284 82L284 123L338 123L338 164L344 164L344 205L398 205L398 245L317 245L317 286L338 286L338 327L277 327L277 368L324 368L324 409L317 409L317 450L331 450L331 491L351 491L351 532L398 532L398 573L358 573L358 614L385 614L385 655L392 655L392 695L344 695L344 736L392 736L392 777L398 777L398 818L270 818L270 859L277 859L277 900L277 900Z" fill="#5a014b"></path><path d="M181 900L134 900L134 859L188 859L188 818L208 818L208 777L222 777L222 736L168 736L168 695L154 695L154 655L195 655L195 614L168 614L168 573L188 573L188 532L154 532L154 491L147 491L147 450L168 450L168 409L188 409L188 368L154 368L154 327L161 327L161 286L147 286L147 245L175 245L175 205L188 205L188 164L188 164L188 123L161 123L161 82L87 82L87 41L141 41L141 0L182 0L182 41L122 41L122 82L203 82L203 123L209 123L209 164L209 164L209 205L216 205L216 245L169 245L169 286L182 286L182 327L182 327L182 368L216 368L216 409L182 409L182 450L182 450L182 491L169 491L169 532L203 532L203 573L203 573L203 614L236 614L236 655L176 655L176 695L182 695L182 736L263 736L263 777L223 777L223 818L203 818L203 859L155 859L155 900L203 900Z" fill="#4b044c"></path><path d="M121 900L114 900L114 859L134 859L134 818L168 818L168 777L168 777L168 736L127 736L127 695L121 695L121 655L154 655L154 614L114 614L114 573L154 573L154 532L127 532L127 491L114 491L114 450L121 450L121 409L141 409L141 368L134 368L134 327L134 327L134 286L127 286L127 245L134 245L134 205L141 205L141 164L141 164L141 123L127 123L127 82L66 82L66 41L121 41L121 0L142 0L142 41L88 41L88 82L162 82L162 123L189 123L189 164L189 164L189 205L176 205L176 245L148 245L148 286L162 286L162 327L155 327L155 368L189 368L189 409L169 409L169 450L148 450L148 491L155 491L155 532L189 532L189 573L169 573L169 614L196 614L196 655L155 655L155 695L169 695L169 736L223 736L223 777L209 777L209 818L189 818L189 859L135 859L135 900L182 900Z" fill="#3b074c"></path><path d="M60 900L33 900L33 859L33 859L33 818L60 818L60 777L73 777L73 736L26 736L26 695L66 695L66 655L40 655L40 614L66 614L66 573L46 573L46 532L66 532L66 491L33 491L33 450L26 450L26 409L60 409L60 368L46 368L46 327L53 327L53 286L33 286L33 245L60 245L60 205L26 205L26 164L53 164L53 123L26 123L26 82L19 82L19 41L53 41L53 0L122 0L122 41L67 41L67 82L128 82L128 123L142 123L142 164L142 164L142 205L135 205L135 245L128 245L128 286L135 286L135 327L135 327L135 368L142 368L142 409L122 409L122 450L115 450L115 491L128 491L128 532L155 532L155 573L115 573L115 614L155 614L155 655L122 655L122 695L128 695L128 736L169 736L169 777L169 777L169 818L135 818L135 859L115 859L115 900L122 900Z" fill="#280a4b"></path><path d="M0 900L0 900L0 859L0 859L0 818L0 818L0 777L0 777L0 736L0 736L0 695L0 695L0 655L0 655L0 614L0 614L0 573L0 573L0 532L0 532L0 491L0 491L0 450L0 450L0 409L0 409L0 368L0 368L0 327L0 327L0 286L0 286L0 245L0 245L0 205L0 205L0 164L0 164L0 123L0 123L0 82L0 82L0 41L0 41L0 0L54 0L54 41L20 41L20 82L27 82L27 123L54 123L54 164L27 164L27 205L61 205L61 245L34 245L34 286L54 286L54 327L47 327L47 368L61 368L61 409L27 409L27 450L34 450L34 491L67 491L67 532L47 532L47 573L67 573L67 614L41 614L41 655L67 655L67 695L27 695L27 736L74 736L74 777L61 777L61 818L34 818L34 859L34 859L34 900L61 900Z" fill="#100c49"></path></svg>