<svg id="visual" viewBox="0 0 2550 1440" width="2550" height="1440" xmlns="http://www.w3.org/2000/svg" xmlns:xlink="http://www.w3.org/1999/xlink" version="1.1"><path d="M0 44L21.3 46.5C42.7 49 85.3 54 127.8 58.8C170.3 63.7 212.7 68.3 255.2 73C297.7 77.7 340.3 82.3 382.8 72.7C425.3 63 467.7 39 510.2 27C552.7 15 595.3 15 637.8 27C680.3 39 722.7 63 765.2 79.8C807.7 96.7 850.3 106.3 892.8 94.3C935.3 82.3 977.7 48.7 1020.2 36.7C1062.7 24.7 1105.3 34.3 1147.8 36.8C1190.3 39.3 1232.7 34.7 1275.2 29.8C1317.7 25 1360.3 20 1402.8 22.3C1445.3 24.7 1487.7 34.3 1530.2 51.2C1572.7 68 1615.3 92 1657.8 92C1700.3 92 1742.7 68 1785.2 60.8C1827.7 53.7 1870.3 63.3 1912.8 70.5C1955.3 77.7 1997.7 82.3 2040.2 89.5C2082.7 96.7 2125.3 106.3 2167.8 96.8C2210.3 87.3 2252.7 58.7 2295.2 58.7C2337.7 58.7 2380.3 87.3 2422.8 99.3C2465.3 111.3 2507.7 106.7 2528.8 104.3L2550 102L2550 0L2528.8 0C2507.7 0 2465.3 0 2422.8 0C2380.3 0 2337.7 0 2295.2 0C2252.7 0 2210.3 0 2167.8 0C2125.3 0 2082.7 0 2040.2 0C1997.7 0 1955.3 0 1912.8 0C1870.3 0 1827.7 0 1785.2 0C1742.7 0 1700.3 0 1657.8 0C1615.3 0 1572.7 0 1530.2 0C1487.7 0 1445.3 0 1402.8 0C1360.3 0 1317.7 0 1275.2 0C1232.7 0 1190.3 0 1147.8 0C1105.3 0 1062.7 0 1020.2 0C977.7 0 935.3 0 892.8 0C850.3 0 807.7 0 765.2 0C722.7 0 680.3 0 637.8 0C595.3 0 552.7 0 510.2 0C467.7 0 425.3 0 382.8 0C340.3 0 297.7 0 255.2 0C212.7 0 170.3 0 127.8 0C85.3 0 42.7 0 21.3 0L0 0Z" fill="#a23131"></path><path d="M0 87L21.3 106.3C42.7 125.7 85.3 164.3 127.8 188.3C170.3 212.3 212.7 221.7 255.2 228.8C297.7 236 340.3 241 382.8 221.8C425.3 202.7 467.7 159.3 510.2 137.7C552.7 116 595.3 116 637.8 123.2C680.3 130.3 722.7 144.7 765.2 149.5C807.7 154.3 850.3 149.7 892.8 140.2C935.3 130.7 977.7 116.3 1020.2 138C1062.7 159.7 1105.3 217.3 1147.8 236.5C1190.3 255.7 1232.7 236.3 1275.2 224.3C1317.7 212.3 1360.3 207.7 1402.8 205.3C1445.3 203 1487.7 203 1530.2 210.2C1572.7 217.3 1615.3 231.7 1657.8 222C1700.3 212.3 1742.7 178.7 1785.2 181C1827.7 183.3 1870.3 221.7 1912.8 243.3C1955.3 265 1997.7 270 2040.2 260.5C2082.7 251 2125.3 227 2167.8 198.2C2210.3 169.3 2252.7 135.7 2295.2 152.3C2337.7 169 2380.3 236 2422.8 264.8C2465.3 293.7 2507.7 284.3 2528.8 279.7L2550 275L2550 100L2528.8 102.3C2507.7 104.7 2465.3 109.3 2422.8 97.3C2380.3 85.3 2337.7 56.7 2295.2 56.7C2252.7 56.7 2210.3 85.3 2167.8 94.8C2125.3 104.3 2082.7 94.7 2040.2 87.5C1997.7 80.3 1955.3 75.7 1912.8 68.5C1870.3 61.3 1827.7 51.7 1785.2 58.8C1742.7 66 1700.3 90 1657.8 90C1615.3 90 1572.7 66 1530.2 49.2C1487.7 32.3 1445.3 22.7 1402.8 20.3C1360.3 18 1317.7 23 1275.2 27.8C1232.7 32.7 1190.3 37.3 1147.8 34.8C1105.3 32.3 1062.7 22.7 1020.2 34.7C977.7 46.7 935.3 80.3 892.8 92.3C850.3 104.3 807.7 94.7 765.2 77.8C722.7 61 680.3 37 637.8 25C595.3 13 552.7 13 510.2 25C467.7 37 425.3 61 382.8 70.7C340.3 80.3 297.7 75.7 255.2 71C212.7 66.3 170.3 61.7 127.8 56.8C85.3 52 42.7 47 21.3 44.5L0 42Z" fill="#9b2636"></path><path d="M0 131L21.3 167C42.7 203 85.3 275 127.8 301.3C170.3 327.7 212.7 308.3 255.2 303.5C297.7 298.7 340.3 308.3 382.8 313.2C425.3 318 467.7 318 510.2 296.3C552.7 274.7 595.3 231.3 637.8 216.8C680.3 202.3 722.7 216.7 765.2 223.8C807.7 231 850.3 231 892.8 247.8C935.3 264.7 977.7 298.3 1020.2 324.8C1062.7 351.3 1105.3 370.7 1147.8 377.8C1190.3 385 1232.7 380 1275.2 365.5C1317.7 351 1360.3 327 1402.8 322.3C1445.3 317.7 1487.7 332.3 1530.2 330C1572.7 327.7 1615.3 308.3 1657.8 296.3C1700.3 284.3 1742.7 279.7 1785.2 279.7C1827.7 279.7 1870.3 284.3 1912.8 310.7C1955.3 337 1997.7 385 2040.2 394.7C2082.7 404.3 2125.3 375.7 2167.8 344.5C2210.3 313.3 2252.7 279.7 2295.2 291.7C2337.7 303.7 2380.3 361.3 2422.8 380.5C2465.3 399.7 2507.7 380.3 2528.8 370.7L2550 361L2550 273L2528.8 277.7C2507.7 282.3 2465.3 291.7 2422.8 262.8C2380.3 234 2337.7 167 2295.2 150.3C2252.7 133.7 2210.3 167.3 2167.8 196.2C2125.3 225 2082.7 249 2040.2 258.5C1997.7 268 1955.3 263 1912.8 241.3C1870.3 219.7 1827.7 181.3 1785.2 179C1742.7 176.7 1700.3 210.3 1657.8 220C1615.3 229.7 1572.7 215.3 1530.2 208.2C1487.7 201 1445.3 201 1402.8 203.3C1360.3 205.7 1317.7 210.3 1275.2 222.3C1232.7 234.3 1190.3 253.7 1147.8 234.5C1105.3 215.3 1062.7 157.7 1020.2 136C977.7 114.3 935.3 128.7 892.8 138.2C850.3 147.7 807.7 152.3 765.2 147.5C722.7 142.7 680.3 128.3 637.8 121.2C595.3 114 552.7 114 510.2 135.7C467.7 157.3 425.3 200.7 382.8 219.8C340.3 239 297.7 234 255.2 226.8C212.7 219.7 170.3 210.3 127.8 186.3C85.3 162.3 42.7 123.7 21.3 104.3L0 85Z" fill="#931b3b"></path><path d="M0 159L21.3 195C42.7 231 85.3 303 127.8 339C170.3 375 212.7 375 255.2 367.8C297.7 360.7 340.3 346.3 382.8 360.8C425.3 375.3 467.7 418.7 510.2 411.5C552.7 404.3 595.3 346.7 637.8 320.2C680.3 293.7 722.7 298.3 765.2 296C807.7 293.7 850.3 284.3 892.8 294C935.3 303.7 977.7 332.3 1020.2 358.7C1062.7 385 1105.3 409 1147.8 430.7C1190.3 452.3 1232.7 471.7 1275.2 464.5C1317.7 457.3 1360.3 423.7 1402.8 409.2C1445.3 394.7 1487.7 399.3 1530.2 399.3C1572.7 399.3 1615.3 394.7 1657.8 392.3C1700.3 390 1742.7 390 1785.2 380.3C1827.7 370.7 1870.3 351.3 1912.8 368.2C1955.3 385 1997.7 438 2040.2 462C2082.7 486 2125.3 481 2167.8 459.3C2210.3 437.7 2252.7 399.3 2295.2 392.2C2337.7 385 2380.3 409 2422.8 428.2C2465.3 447.3 2507.7 461.7 2528.8 468.8L2550 476L2550 359L2528.8 368.7C2507.7 378.3 2465.3 397.7 2422.8 378.5C2380.3 359.3 2337.7 301.7 2295.2 289.7C2252.7 277.7 2210.3 311.3 2167.8 342.5C2125.3 373.7 2082.7 402.3 2040.2 392.7C1997.7 383 1955.3 335 1912.8 308.7C1870.3 282.3 1827.7 277.7 1785.2 277.7C1742.7 277.7 1700.3 282.3 1657.8 294.3C1615.3 306.3 1572.7 325.7 1530.2 328C1487.7 330.3 1445.3 315.7 1402.8 320.3C1360.3 325 1317.7 349 1275.2 363.5C1232.7 378 1190.3 383 1147.8 375.8C1105.3 368.7 1062.7 349.3 1020.2 322.8C977.7 296.3 935.3 262.7 892.8 245.8C850.3 229 807.7 229 765.2 221.8C722.7 214.7 680.3 200.3 637.8 214.8C595.3 229.3 552.7 272.7 510.2 294.3C467.7 316 425.3 316 382.8 311.2C340.3 306.3 297.7 296.7 255.2 301.5C212.7 306.3 170.3 325.7 127.8 299.3C85.3 273 42.7 201 21.3 165L0 129Z" fill="#8a103f"></path><path d="M0 260L21.3 296C42.7 332 85.3 404 127.8 437.7C170.3 471.3 212.7 466.7 255.2 464.3C297.7 462 340.3 462 382.8 469.2C425.3 476.3 467.7 490.7 510.2 478.7C552.7 466.7 595.3 428.3 637.8 418.7C680.3 409 722.7 428 765.2 428C807.7 428 850.3 409 892.8 406.7C935.3 404.3 977.7 418.7 1020.2 440.2C1062.7 461.7 1105.3 490.3 1147.8 526.3C1190.3 562.3 1232.7 605.7 1275.2 593.7C1317.7 581.7 1360.3 514.3 1402.8 490.3C1445.3 466.3 1487.7 485.7 1530.2 497.7C1572.7 509.7 1615.3 514.3 1657.8 500C1700.3 485.7 1742.7 452.3 1785.2 426C1827.7 399.7 1870.3 380.3 1912.8 409C1955.3 437.7 1997.7 514.3 2040.2 555.2C2082.7 596 2125.3 601 2167.8 577C2210.3 553 2252.7 500 2295.2 492.8C2337.7 485.7 2380.3 524.3 2422.8 550.8C2465.3 577.3 2507.7 591.7 2528.8 598.8L2550 606L2550 474L2528.8 466.8C2507.7 459.7 2465.3 445.3 2422.8 426.2C2380.3 407 2337.7 383 2295.2 390.2C2252.7 397.3 2210.3 435.7 2167.8 457.3C2125.3 479 2082.7 484 2040.2 460C1997.7 436 1955.3 383 1912.8 366.2C1870.3 349.3 1827.7 368.7 1785.2 378.3C1742.7 388 1700.3 388 1657.8 390.3C1615.3 392.7 1572.7 397.3 1530.2 397.3C1487.7 397.3 1445.3 392.7 1402.8 407.2C1360.3 421.7 1317.7 455.3 1275.2 462.5C1232.7 469.7 1190.3 450.3 1147.8 428.7C1105.3 407 1062.7 383 1020.2 356.7C977.7 330.3 935.3 301.7 892.8 292C850.3 282.3 807.7 291.7 765.2 294C722.7 296.3 680.3 291.7 637.8 318.2C595.3 344.7 552.7 402.3 510.2 409.5C467.7 416.7 425.3 373.3 382.8 358.8C340.3 344.3 297.7 358.7 255.2 365.8C212.7 373 170.3 373 127.8 337C85.3 301 42.7 229 21.3 193L0 157Z" fill="#800643"></path><path d="M0 447L21.3 528.7C42.7 610.3 85.3 773.7 127.8 809.7C170.3 845.7 212.7 754.3 255.2 725.5C297.7 696.7 340.3 730.3 382.8 725.7C425.3 721 467.7 678 510.2 673.2C552.7 668.3 595.3 701.7 637.8 694.3C680.3 687 722.7 639 765.2 622.3C807.7 605.7 850.3 620.3 892.8 649.2C935.3 678 977.7 721 1020.2 716.2C1062.7 711.3 1105.3 658.7 1147.8 685.2C1190.3 711.7 1232.7 817.3 1275.2 829.3C1317.7 841.3 1360.3 759.7 1402.8 745.2C1445.3 730.7 1487.7 783.3 1530.2 780.8C1572.7 778.3 1615.3 720.7 1657.8 720.7C1700.3 720.7 1742.7 778.3 1785.2 747.2C1827.7 716 1870.3 596 1912.8 576.8C1955.3 557.7 1997.7 639.3 2040.2 730.5C2082.7 821.7 2125.3 922.3 2167.8 944C2210.3 965.7 2252.7 908.3 2295.2 867.7C2337.7 827 2380.3 803 2422.8 786.2C2465.3 769.3 2507.7 759.7 2528.8 754.8L2550 750L2550 604L2528.8 596.8C2507.7 589.7 2465.3 575.3 2422.8 548.8C2380.3 522.3 2337.7 483.7 2295.2 490.8C2252.7 498 2210.3 551 2167.8 575C2125.3 599 2082.7 594 2040.2 553.2C1997.7 512.3 1955.3 435.7 1912.8 407C1870.3 378.3 1827.7 397.7 1785.2 424C1742.7 450.3 1700.3 483.7 1657.8 498C1615.3 512.3 1572.7 507.7 1530.2 495.7C1487.7 483.7 1445.3 464.3 1402.8 488.3C1360.3 512.3 1317.7 579.7 1275.2 591.7C1232.7 603.7 1190.3 560.3 1147.8 524.3C1105.3 488.3 1062.7 459.7 1020.2 438.2C977.7 416.7 935.3 402.3 892.8 404.7C850.3 407 807.7 426 765.2 426C722.7 426 680.3 407 637.8 416.7C595.3 426.3 552.7 464.7 510.2 476.7C467.7 488.7 425.3 474.3 382.8 467.2C340.3 460 297.7 460 255.2 462.3C212.7 464.7 170.3 469.3 127.8 435.7C85.3 402 42.7 330 21.3 294L0 258Z" fill="#740147"></path><path d="M0 707L21.3 759.7C42.7 812.3 85.3 917.7 127.8 953.7C170.3 989.7 212.7 956.3 255.2 920.3C297.7 884.3 340.3 845.7 382.8 836C425.3 826.3 467.7 845.7 510.2 874.5C552.7 903.3 595.3 941.7 637.8 924.8C680.3 908 722.7 836 765.2 814.5C807.7 793 850.3 822 892.8 846C935.3 870 977.7 889 1020.2 889C1062.7 889 1105.3 870 1147.8 889.2C1190.3 908.3 1232.7 965.7 1275.2 958.3C1317.7 951 1360.3 879 1402.8 871.8C1445.3 864.7 1487.7 922.3 1530.2 912.8C1572.7 903.3 1615.3 826.7 1657.8 821.8C1700.3 817 1742.7 884 1785.2 874.3C1827.7 864.7 1870.3 778.3 1912.8 752C1955.3 725.7 1997.7 759.3 2040.2 845.8C2082.7 932.3 2125.3 1071.7 2167.8 1090.8C2210.3 1110 2252.7 1009 2295.2 961C2337.7 913 2380.3 918 2422.8 913.2C2465.3 908.3 2507.7 893.7 2528.8 886.3L2550 879L2550 748L2528.8 752.8C2507.7 757.7 2465.3 767.3 2422.8 784.2C2380.3 801 2337.7 825 2295.2 865.7C2252.7 906.3 2210.3 963.7 2167.8 942C2125.3 920.3 2082.7 819.7 2040.2 728.5C1997.7 637.3 1955.3 555.7 1912.8 574.8C1870.3 594 1827.7 714 1785.2 745.2C1742.7 776.3 1700.3 718.7 1657.8 718.7C1615.3 718.7 1572.7 776.3 1530.2 778.8C1487.7 781.3 1445.3 728.7 1402.8 743.2C1360.3 757.7 1317.7 839.3 1275.2 827.3C1232.7 815.3 1190.3 709.7 1147.8 683.2C1105.3 656.7 1062.7 709.3 1020.2 714.2C977.7 719 935.3 676 892.8 647.2C850.3 618.3 807.7 603.7 765.2 620.3C722.7 637 680.3 685 637.8 692.3C595.3 699.7 552.7 666.3 510.2 671.2C467.7 676 425.3 719 382.8 723.7C340.3 728.3 297.7 694.7 255.2 723.5C212.7 752.3 170.3 843.7 127.8 807.7C85.3 771.7 42.7 608.3 21.3 526.7L0 445Z" fill="#670049"></path><path d="M0 764L21.3 819.2C42.7 874.3 85.3 984.7 127.8 1030.3C170.3 1076 212.7 1057 255.2 1023.5C297.7 990 340.3 942 382.8 922.8C425.3 903.7 467.7 913.3 510.2 939.7C552.7 966 595.3 1009 637.8 987.3C680.3 965.7 722.7 879.3 765.2 853C807.7 826.7 850.3 860.3 892.8 884.3C935.3 908.3 977.7 922.7 1020.2 922.7C1062.7 922.7 1105.3 908.3 1147.8 934.7C1190.3 961 1232.7 1028 1275.2 1023.2C1317.7 1018.3 1360.3 941.7 1402.8 939.3C1445.3 937 1487.7 1009 1530.2 994.7C1572.7 980.3 1615.3 879.7 1657.8 872.5C1700.3 865.3 1742.7 951.7 1785.2 951.7C1827.7 951.7 1870.3 865.3 1912.8 831.7C1955.3 798 1997.7 817 2040.2 896.2C2082.7 975.3 2125.3 1114.7 2167.8 1143.5C2210.3 1172.3 2252.7 1090.7 2295.2 1045C2337.7 999.3 2380.3 989.7 2422.8 972.8C2465.3 956 2507.7 932 2528.8 920L2550 908L2550 877L2528.8 884.3C2507.7 891.7 2465.3 906.3 2422.8 911.2C2380.3 916 2337.7 911 2295.2 959C2252.7 1007 2210.3 1108 2167.8 1088.8C2125.3 1069.7 2082.7 930.3 2040.2 843.8C1997.7 757.3 1955.3 723.7 1912.8 750C1870.3 776.3 1827.7 862.7 1785.2 872.3C1742.7 882 1700.3 815 1657.8 819.8C1615.3 824.7 1572.7 901.3 1530.2 910.8C1487.7 920.3 1445.3 862.7 1402.8 869.8C1360.3 877 1317.7 949 1275.2 956.3C1232.7 963.7 1190.3 906.3 1147.8 887.2C1105.3 868 1062.7 887 1020.2 887C977.7 887 935.3 868 892.8 844C850.3 820 807.7 791 765.2 812.5C722.7 834 680.3 906 637.8 922.8C595.3 939.7 552.7 901.3 510.2 872.5C467.7 843.7 425.3 824.3 382.8 834C340.3 843.7 297.7 882.3 255.2 918.3C212.7 954.3 170.3 987.7 127.8 951.7C85.3 915.7 42.7 810.3 21.3 757.7L0 705Z" fill="#5a014b"></path><path d="M0 1239L21.3 1243.8C42.7 1248.7 85.3 1258.3 127.8 1270.3C170.3 1282.3 212.7 1296.7 255.2 1296.7C297.7 1296.7 340.3 1282.3 382.8 1287.2C425.3 1292 467.7 1316 510.2 1308.8C552.7 1301.7 595.3 1263.3 637.8 1239.3C680.3 1215.3 722.7 1205.7 765.2 1208C807.7 1210.3 850.3 1224.7 892.8 1246.3C935.3 1268 977.7 1297 1020.2 1292.3C1062.7 1287.7 1105.3 1249.3 1147.8 1239.7C1190.3 1230 1232.7 1249 1275.2 1246.5C1317.7 1244 1360.3 1220 1402.8 1215.2C1445.3 1210.3 1487.7 1224.7 1530.2 1248.7C1572.7 1272.7 1615.3 1306.3 1657.8 1306.3C1700.3 1306.3 1742.7 1272.7 1785.2 1253.5C1827.7 1234.3 1870.3 1229.7 1912.8 1239.3C1955.3 1249 1997.7 1273 2040.2 1289.8C2082.7 1306.7 2125.3 1316.3 2167.8 1306.7C2210.3 1297 2252.7 1268 2295.2 1260.8C2337.7 1253.7 2380.3 1268.3 2422.8 1273.2C2465.3 1278 2507.7 1273 2528.8 1270.5L2550 1268L2550 906L2528.8 918C2507.7 930 2465.3 954 2422.8 970.8C2380.3 987.7 2337.7 997.3 2295.2 1043C2252.7 1088.7 2210.3 1170.3 2167.8 1141.5C2125.3 1112.7 2082.7 973.3 2040.2 894.2C1997.7 815 1955.3 796 1912.8 829.7C1870.3 863.3 1827.7 949.7 1785.2 949.7C1742.7 949.7 1700.3 863.3 1657.8 870.5C1615.3 877.7 1572.7 978.3 1530.2 992.7C1487.7 1007 1445.3 935 1402.8 937.3C1360.3 939.7 1317.7 1016.3 1275.2 1021.2C1232.7 1026 1190.3 959 1147.8 932.7C1105.3 906.3 1062.7 920.7 1020.2 920.7C977.7 920.7 935.3 906.3 892.8 882.3C850.3 858.3 807.7 824.7 765.2 851C722.7 877.3 680.3 963.7 637.8 985.3C595.3 1007 552.7 964 510.2 937.7C467.7 911.3 425.3 901.7 382.8 920.8C340.3 940 297.7 988 255.2 1021.5C212.7 1055 170.3 1074 127.8 1028.3C85.3 982.7 42.7 872.3 21.3 817.2L0 762Z" fill="#4b044c"></path><path d="M0 1369L21.3 1364.2C42.7 1359.3 85.3 1349.7 127.8 1352C170.3 1354.3 212.7 1368.7 255.2 1363.8C297.7 1359 340.3 1335 382.8 1335C425.3 1335 467.7 1359 510.2 1361.5C552.7 1364 595.3 1345 637.8 1325.8C680.3 1306.7 722.7 1287.3 765.2 1287.3C807.7 1287.3 850.3 1306.7 892.8 1325.8C935.3 1345 977.7 1364 1020.2 1364C1062.7 1364 1105.3 1345 1147.8 1342.7C1190.3 1340.3 1232.7 1354.7 1275.2 1357C1317.7 1359.3 1360.3 1349.7 1402.8 1352C1445.3 1354.3 1487.7 1368.7 1530.2 1373.5C1572.7 1378.3 1615.3 1373.7 1657.8 1371.3C1700.3 1369 1742.7 1369 1785.2 1364.2C1827.7 1359.3 1870.3 1349.7 1912.8 1352C1955.3 1354.3 1997.7 1368.7 2040.2 1373.5C2082.7 1378.3 2125.3 1373.7 2167.8 1366.5C2210.3 1359.3 2252.7 1349.7 2295.2 1356.8C2337.7 1364 2380.3 1388 2422.8 1385.7C2465.3 1383.3 2507.7 1354.7 2528.8 1340.3L2550 1326L2550 1266L2528.8 1268.5C2507.7 1271 2465.3 1276 2422.8 1271.2C2380.3 1266.3 2337.7 1251.7 2295.2 1258.8C2252.7 1266 2210.3 1295 2167.8 1304.7C2125.3 1314.3 2082.7 1304.7 2040.2 1287.8C1997.7 1271 1955.3 1247 1912.8 1237.3C1870.3 1227.7 1827.7 1232.3 1785.2 1251.5C1742.7 1270.7 1700.3 1304.3 1657.8 1304.3C1615.3 1304.3 1572.7 1270.7 1530.2 1246.7C1487.7 1222.7 1445.3 1208.3 1402.8 1213.2C1360.3 1218 1317.7 1242 1275.2 1244.5C1232.7 1247 1190.3 1228 1147.8 1237.7C1105.3 1247.3 1062.7 1285.7 1020.2 1290.3C977.7 1295 935.3 1266 892.8 1244.3C850.3 1222.7 807.7 1208.3 765.2 1206C722.7 1203.7 680.3 1213.3 637.8 1237.3C595.3 1261.3 552.7 1299.7 510.2 1306.8C467.7 1314 425.3 1290 382.8 1285.2C340.3 1280.3 297.7 1294.7 255.2 1294.7C212.7 1294.7 170.3 1280.3 127.8 1268.3C85.3 1256.3 42.7 1246.7 21.3 1241.8L0 1237Z" fill="#3b074c"></path><path d="M0 1412L21.3 1402.5C42.7 1393 85.3 1374 127.8 1374C170.3 1374 212.7 1393 255.2 1397.7C297.7 1402.3 340.3 1392.7 382.8 1390.3C425.3 1388 467.7 1393 510.2 1400.3C552.7 1407.7 595.3 1417.3 637.8 1410.2C680.3 1403 722.7 1379 765.2 1369.3C807.7 1359.7 850.3 1364.3 892.8 1376.3C935.3 1388.3 977.7 1407.7 1020.2 1417.3C1062.7 1427 1105.3 1427 1147.8 1424.5C1190.3 1422 1232.7 1417 1275.2 1412.2C1317.7 1407.3 1360.3 1402.7 1402.8 1402.7C1445.3 1402.7 1487.7 1407.3 1530.2 1409.7C1572.7 1412 1615.3 1412 1657.8 1412C1700.3 1412 1742.7 1412 1785.2 1407.2C1827.7 1402.3 1870.3 1392.7 1912.8 1390.3C1955.3 1388 1997.7 1393 2040.2 1400.3C2082.7 1407.7 2125.3 1417.3 2167.8 1412.5C2210.3 1407.7 2252.7 1388.3 2295.2 1388.3C2337.7 1388.3 2380.3 1407.7 2422.8 1414.8C2465.3 1422 2507.7 1417 2528.8 1414.5L2550 1412L2550 1324L2528.8 1338.3C2507.7 1352.7 2465.3 1381.3 2422.8 1383.7C2380.3 1386 2337.7 1362 2295.2 1354.8C2252.7 1347.7 2210.3 1357.3 2167.8 1364.5C2125.3 1371.7 2082.7 1376.3 2040.2 1371.5C1997.7 1366.7 1955.3 1352.3 1912.8 1350C1870.3 1347.7 1827.7 1357.3 1785.2 1362.2C1742.7 1367 1700.3 1367 1657.8 1369.3C1615.3 1371.7 1572.7 1376.3 1530.2 1371.5C1487.7 1366.7 1445.3 1352.3 1402.8 1350C1360.3 1347.7 1317.7 1357.3 1275.2 1355C1232.7 1352.7 1190.3 1338.3 1147.8 1340.7C1105.3 1343 1062.7 1362 1020.2 1362C977.7 1362 935.3 1343 892.8 1323.8C850.3 1304.7 807.7 1285.3 765.2 1285.3C722.7 1285.3 680.3 1304.7 637.8 1323.8C595.3 1343 552.7 1362 510.2 1359.5C467.7 1357 425.3 1333 382.8 1333C340.3 1333 297.7 1357 255.2 1361.8C212.7 1366.7 170.3 1352.3 127.8 1350C85.3 1347.7 42.7 1357.3 21.3 1362.2L0 1367Z" fill="#280a4b"></path><path d="M0 1441L21.3 1441C42.7 1441 85.3 1441 127.8 1441C170.3 1441 212.7 1441 255.2 1441C297.7 1441 340.3 1441 382.8 1441C425.3 1441 467.7 1441 510.2 1441C552.7 1441 595.3 1441 637.8 1441C680.3 1441 722.7 1441 765.2 1441C807.7 1441 850.3 1441 892.8 1441C935.3 1441 977.7 1441 1020.2 1441C1062.7 1441 1105.3 1441 1147.8 1441C1190.3 1441 1232.7 1441 1275.2 1441C1317.7 1441 1360.3 1441 1402.8 1441C1445.3 1441 1487.7 1441 1530.2 1441C1572.7 1441 1615.3 1441 1657.8 1441C1700.3 1441 1742.7 1441 1785.2 1441C1827.7 1441 1870.3 1441 1912.8 1441C1955.3 1441 1997.7 1441 2040.2 1441C2082.7 1441 2125.3 1441 2167.8 1441C2210.3 1441 2252.7 1441 2295.2 1441C2337.7 1441 2380.3 1441 2422.8 1441C2465.3 1441 2507.7 1441 2528.8 1441L2550 1441L2550 1410L2528.8 1412.5C2507.7 1415 2465.3 1420 2422.8 1412.8C2380.3 1405.7 2337.7 1386.3 2295.2 1386.3C2252.7 1386.3 2210.3 1405.7 2167.8 1410.5C2125.3 1415.3 2082.7 1405.7 2040.2 1398.3C1997.7 1391 1955.3 1386 1912.8 1388.3C1870.3 1390.7 1827.7 1400.3 1785.2 1405.2C1742.7 1410 1700.3 1410 1657.8 1410C1615.3 1410 1572.7 1410 1530.2 1407.7C1487.7 1405.3 1445.3 1400.7 1402.8 1400.7C1360.3 1400.7 1317.7 1405.3 1275.2 1410.2C1232.7 1415 1190.3 1420 1147.8 1422.5C1105.3 1425 1062.7 1425 1020.2 1415.3C977.7 1405.7 935.3 1386.3 892.8 1374.3C850.3 1362.3 807.7 1357.7 765.2 1367.3C722.7 1377 680.3 1401 637.8 1408.2C595.3 1415.3 552.7 1405.7 510.2 1398.3C467.7 1391 425.3 1386 382.8 1388.3C340.3 1390.7 297.7 1400.3 255.2 1395.7C212.7 1391 170.3 1372 127.8 1372C85.3 1372 42.7 1391 21.3 1400.5L0 1410Z" fill="#100c49"></path></svg>