<svg id="visual" viewBox="0 0 450 900" width="450" height="900" xmlns="http://www.w3.org/2000/svg" xmlns:xlink="http://www.w3.org/1999/xlink" version="1.1"><path d="M436 900L435.2 892.5C434.3 885 432.7 870 431.2 855C429.7 840 428.3 825 426.8 810C425.3 795 423.7 780 426.7 765C429.7 750 437.3 735 441.2 720C445 705 445 690 441.2 675C437.3 660 429.7 645 424.3 630C419 615 416 600 419.8 585C423.7 570 434.3 555 438.2 540C442 525 439 510 438.2 495C437.3 480 438.7 465 440.2 450C441.7 435 443.3 420 442.7 405C442 390 439 375 433.7 360C428.3 345 420.7 330 420.7 315C420.7 300 428.3 285 430.7 270C433 255 430 240 427.7 225C425.3 210 423.7 195 421.3 180C419 165 416 150 419 135C422 120 431 105 431 90C431 75 422 60 418.3 45C414.7 30 416.3 15 417.2 7.5L418 0L450 0L450 7.5C450 15 450 30 450 45C450 60 450 75 450 90C450 105 450 120 450 135C450 150 450 165 450 180C450 195 450 210 450 225C450 240 450 255 450 270C450 285 450 300 450 315C450 330 450 345 450 360C450 375 450 390 450 405C450 420 450 435 450 450C450 465 450 480 450 495C450 510 450 525 450 540C450 555 450 570 450 585C450 600 450 615 450 630C450 645 450 660 450 675C450 690 450 705 450 720C450 735 450 750 450 765C450 780 450 795 450 810C450 825 450 840 450 855C450 870 450 885 450 892.5L450 900Z" fill="#100c49"></path><path d="M422 900L416 892.5C410 885 398 870 390.5 855C383 840 380 825 377.8 810C375.7 795 374.3 780 380.3 765C386.3 750 399.7 735 406.3 720C413 705 413 690 410.8 675C408.7 660 404.3 645 402.8 630C401.3 615 402.7 600 405.7 585C408.7 570 413.3 555 406.7 540C400 525 382 510 376 495C370 480 376 465 379.7 450C383.3 435 384.7 420 385.3 405C386 390 386 375 383.8 360C381.7 345 377.3 330 380.3 315C383.3 300 393.7 285 392.8 270C392 255 380 240 373.3 225C366.7 210 365.3 195 368.3 180C371.3 165 378.7 150 387.7 135C396.7 120 407.3 105 402.2 90C397 75 376 60 367 45C358 30 361 15 362.5 7.5L364 0L419 0L418.2 7.5C417.3 15 415.7 30 419.3 45C423 60 432 75 432 90C432 105 423 120 420 135C417 150 420 165 422.3 180C424.7 195 426.3 210 428.7 225C431 240 434 255 431.7 270C429.3 285 421.7 300 421.7 315C421.7 330 429.3 345 434.7 360C440 375 443 390 443.7 405C444.3 420 442.7 435 441.2 450C439.7 465 438.3 480 439.2 495C440 510 443 525 439.2 540C435.3 555 424.7 570 420.8 585C417 600 420 615 425.3 630C430.7 645 438.3 660 442.2 675C446 690 446 705 442.2 720C438.3 735 430.7 750 427.7 765C424.7 780 426.3 795 427.8 810C429.3 825 430.7 840 432.2 855C433.7 870 435.3 885 436.2 892.5L437 900Z" fill="#280a4b"></path><path d="M409 900L397.7 892.5C386.3 885 363.7 870 355.3 855C347 840 353 825 354.5 810C356 795 353 780 351.5 765C350 750 350 735 356.8 720C363.7 705 377.3 690 381.8 675C386.3 660 381.7 645 379.3 630C377 615 377 600 371.8 585C366.7 570 356.3 555 348.2 540C340 525 334 510 331.7 495C329.3 480 330.7 465 335.2 450C339.7 435 347.3 420 348.8 405C350.3 390 345.7 375 346.3 360C347 345 353 330 356.8 315C360.7 300 362.3 285 362.3 270C362.3 255 360.7 240 352.3 225C344 210 329 195 326 180C323 165 332 150 341.8 135C351.7 120 362.3 105 358.7 90C355 75 337 60 331 45C325 30 331 15 334 7.5L337 0L365 0L363.5 7.5C362 15 359 30 368 45C377 60 398 75 403.2 90C408.3 105 397.7 120 388.7 135C379.7 150 372.3 165 369.3 180C366.3 195 367.7 210 374.3 225C381 240 393 255 393.8 270C394.7 285 384.3 300 381.3 315C378.3 330 382.7 345 384.8 360C387 375 387 390 386.3 405C385.7 420 384.3 435 380.7 450C377 465 371 480 377 495C383 510 401 525 407.7 540C414.3 555 409.7 570 406.7 585C403.7 600 402.3 615 403.8 630C405.3 645 409.7 660 411.8 675C414 690 414 705 407.3 720C400.7 735 387.3 750 381.3 765C375.3 780 376.7 795 378.8 810C381 825 384 840 391.5 855C399 870 411 885 417 892.5L423 900Z" fill="#3b074c"></path><path d="M400 900L388.7 892.5C377.3 885 354.7 870 343.3 855C332 840 332 825 334.3 810C336.7 795 341.3 780 336.8 765C332.3 750 318.7 735 320.8 720C323 705 341 690 349.3 675C357.7 660 356.3 645 357.2 630C358 615 361 600 358 585C355 570 346 555 337.7 540C329.3 525 321.7 510 314.8 495C308 480 302 465 304.3 450C306.7 435 317.3 420 321.8 405C326.3 390 324.7 375 324.7 360C324.7 345 326.3 330 327.2 315C328 300 328 285 331 270C334 255 340 240 334.7 225C329.3 210 312.7 195 305 180C297.3 165 298.7 150 305.5 135C312.3 120 324.7 105 327 90C329.3 75 321.7 60 315.5 45C309.3 30 304.7 15 302.3 7.5L300 0L338 0L335 7.5C332 15 326 30 332 45C338 60 356 75 359.7 90C363.3 105 352.7 120 342.8 135C333 150 324 165 327 180C330 195 345 210 353.3 225C361.7 240 363.3 255 363.3 270C363.3 285 361.7 300 357.8 315C354 330 348 345 347.3 360C346.7 375 351.3 390 349.8 405C348.3 420 340.7 435 336.2 450C331.7 465 330.3 480 332.7 495C335 510 341 525 349.2 540C357.3 555 367.7 570 372.8 585C378 600 378 615 380.3 630C382.7 645 387.3 660 382.8 675C378.3 690 364.7 705 357.8 720C351 735 351 750 352.5 765C354 780 357 795 355.5 810C354 825 348 840 356.3 855C364.7 870 387.3 885 398.7 892.5L410 900Z" fill="#4b044c"></path><path d="M368 900L356.7 892.5C345.3 885 322.7 870 312.2 855C301.7 840 303.3 825 304.2 810C305 795 305 780 302.8 765C300.7 750 296.3 735 300.2 720C304 705 316 690 319 675C322 660 316 645 316 630C316 615 322 600 322.7 585C323.3 570 318.7 555 311.8 540C305 525 296 510 284.8 495C273.7 480 260.3 465 264.2 450C268 435 289 420 296.5 405C304 390 298 375 294.2 360C290.3 345 288.7 330 293.2 315C297.7 300 308.3 285 316.7 270C325 255 331 240 322 225C313 210 289 195 276.2 180C263.3 165 261.7 150 269.2 135C276.7 120 293.3 105 295.7 90C298 75 286 60 277.7 45C269.3 30 264.7 15 262.3 7.5L260 0L301 0L303.3 7.5C305.7 15 310.3 30 316.5 45C322.7 60 330.3 75 328 90C325.7 105 313.3 120 306.5 135C299.7 150 298.3 165 306 180C313.7 195 330.3 210 335.7 225C341 240 335 255 332 270C329 285 329 300 328.2 315C327.3 330 325.7 345 325.7 360C325.7 375 327.3 390 322.8 405C318.3 420 307.7 435 305.3 450C303 465 309 480 315.8 495C322.7 510 330.3 525 338.7 540C347 555 356 570 359 585C362 600 359 615 358.2 630C357.3 645 358.7 660 350.3 675C342 690 324 705 321.8 720C319.7 735 333.3 750 337.8 765C342.3 780 337.7 795 335.3 810C333 825 333 840 344.3 855C355.7 870 378.3 885 389.7 892.5L401 900Z" fill="#5a014b"></path><path d="M310 900L284.5 892.5C259 885 208 870 196.7 855C185.3 840 213.7 825 222.7 810C231.7 795 221.3 780 222.8 765C224.3 750 237.7 735 239.2 720C240.7 705 230.3 690 232.7 675C235 660 250 645 255.2 630C260.3 615 255.7 600 246.7 585C237.7 570 224.3 555 225.8 540C227.3 525 243.7 510 235.3 495C227 480 194 465 190.3 450C186.7 435 212.3 420 216.8 405C221.3 390 204.7 375 205.3 360C206 345 224 330 224 315C224 300 206 285 215.7 270C225.3 255 262.7 240 268.7 225C274.7 210 249.3 195 221 180C192.7 165 161.3 150 154.7 135C148 120 166 105 178.7 90C191.3 75 198.7 60 203.8 45C209 30 212 15 213.5 7.5L215 0L261 0L263.3 7.5C265.7 15 270.3 30 278.7 45C287 60 299 75 296.7 90C294.3 105 277.7 120 270.2 135C262.7 150 264.3 165 277.2 180C290 195 314 210 323 225C332 240 326 255 317.7 270C309.3 285 298.7 300 294.2 315C289.7 330 291.3 345 295.2 360C299 375 305 390 297.5 405C290 420 269 435 265.2 450C261.3 465 274.7 480 285.8 495C297 510 306 525 312.8 540C319.7 555 324.3 570 323.7 585C323 600 317 615 317 630C317 645 323 660 320 675C317 690 305 705 301.2 720C297.3 735 301.7 750 303.8 765C306 780 306 795 305.2 810C304.3 825 302.7 840 313.2 855C323.7 870 346.3 885 357.7 892.5L369 900Z" fill="#670049"></path><path d="M229 900L212.5 892.5C196 885 163 870 151.7 855C140.3 840 150.7 825 161.8 810C173 795 185 780 188 765C191 750 185 735 176 720C167 705 155 690 160.3 675C165.7 660 188.3 645 195.2 630C202 615 193 600 185.5 585C178 570 172 555 172 540C172 525 178 510 172 495C166 480 148 465 150.2 450C152.3 435 174.7 420 176.8 405C179 390 161 375 164 360C167 345 191 330 192.5 315C194 300 173 285 176 270C179 255 206 240 214.2 225C222.3 210 211.7 195 184.7 180C157.7 165 114.3 150 108.5 135C102.7 120 134.3 105 149.3 90C164.3 75 162.7 60 164.2 45C165.7 30 170.3 15 172.7 7.5L175 0L216 0L214.5 7.5C213 15 210 30 204.8 45C199.7 60 192.3 75 179.7 90C167 105 149 120 155.7 135C162.3 150 193.7 165 222 180C250.3 195 275.7 210 269.7 225C263.7 240 226.3 255 216.7 270C207 285 225 300 225 315C225 330 207 345 206.3 360C205.7 375 222.3 390 217.8 405C213.3 420 187.7 435 191.3 450C195 465 228 480 236.3 495C244.7 510 228.3 525 226.8 540C225.3 555 238.7 570 247.7 585C256.7 600 261.3 615 256.2 630C251 645 236 660 233.7 675C231.3 690 241.7 705 240.2 720C238.7 735 225.3 750 223.8 765C222.3 780 232.7 795 223.7 810C214.7 825 186.3 840 197.7 855C209 870 260 885 285.5 892.5L311 900Z" fill="#740147"></path><path d="M211 900L193.7 892.5C176.3 885 141.7 870 127.3 855C113 840 119 825 129.5 810C140 795 155 780 161 765C167 750 164 735 155.8 720C147.7 705 134.3 690 141 675C147.7 660 174.3 645 182.5 630C190.7 615 180.3 600 173 585C165.7 570 161.3 555 161.3 540C161.3 525 165.7 510 157.3 495C149 480 128 465 129.5 450C131 435 155 420 155.8 405C156.7 390 134.3 375 138.8 360C143.3 345 174.7 330 176.8 315C179 300 152 285 152 270C152 255 179 240 189.5 225C200 210 194 195 169.3 180C144.7 165 101.3 150 92.3 135C83.3 120 108.7 105 122.8 90C137 75 140 60 145.3 45C150.7 30 158.3 15 162.2 7.5L166 0L176 0L173.7 7.5C171.3 15 166.7 30 165.2 45C163.7 60 165.3 75 150.3 90C135.3 105 103.7 120 109.5 135C115.3 150 158.7 165 185.7 180C212.7 195 223.3 210 215.2 225C207 240 180 255 177 270C174 285 195 300 193.5 315C192 330 168 345 165 360C162 375 180 390 177.8 405C175.7 420 153.3 435 151.2 450C149 465 167 480 173 495C179 510 173 525 173 540C173 555 179 570 186.5 585C194 600 203 615 196.2 630C189.3 645 166.7 660 161.3 675C156 690 168 705 177 720C186 735 192 750 189 765C186 780 174 795 162.8 810C151.7 825 141.3 840 152.7 855C164 870 197 885 213.5 892.5L230 900Z" fill="#800643"></path><path d="M62 900L60.5 892.5C59 885 56 870 52.2 855C48.3 840 43.7 825 43.7 810C43.7 795 48.3 780 46.8 765C45.3 750 37.7 735 40 720C42.3 705 54.7 690 62.3 675C70 660 73 645 72.2 630C71.3 615 66.7 600 59.8 585C53 570 44 555 45.5 540C47 525 59 510 62 495C65 480 59 465 59.8 450C60.7 435 68.3 420 69.8 405C71.3 390 66.7 375 59 360C51.3 345 40.7 330 40.7 315C40.7 300 51.3 285 57.5 270C63.7 255 65.3 240 62.3 225C59.3 210 51.7 195 46.3 180C41 165 38 150 41 135C44 120 53 105 55.2 90C57.3 75 52.7 60 51.2 45C49.7 30 51.3 15 52.2 7.5L53 0L167 0L163.2 7.5C159.3 15 151.7 30 146.3 45C141 60 138 75 123.8 90C109.7 105 84.3 120 93.3 135C102.3 150 145.7 165 170.3 180C195 195 201 210 190.5 225C180 240 153 255 153 270C153 285 180 300 177.8 315C175.7 330 144.3 345 139.8 360C135.3 375 157.7 390 156.8 405C156 420 132 435 130.5 450C129 465 150 480 158.3 495C166.7 510 162.3 525 162.3 540C162.3 555 166.7 570 174 585C181.3 600 191.7 615 183.5 630C175.3 645 148.7 660 142 675C135.3 690 148.7 705 156.8 720C165 735 168 750 162 765C156 780 141 795 130.5 810C120 825 114 840 128.3 855C142.7 870 177.3 885 194.7 892.5L212 900Z" fill="#8a103f"></path><path d="M22 900L23.3 892.5C24.7 885 27.3 870 26.5 855C25.7 840 21.3 825 22.8 810C24.3 795 31.7 780 31.7 765C31.7 750 24.3 735 23.7 720C23 705 29 690 35 675C41 660 47 645 47 630C47 615 41 600 35 585C29 570 23 555 23 540C23 525 29 510 29.8 495C30.7 480 26.3 465 25.5 450C24.7 435 27.3 420 26.5 405C25.7 390 21.3 375 20 360C18.7 345 20.3 330 21.2 315C22 300 22 285 23.3 270C24.7 255 27.3 240 26.5 225C25.7 210 21.3 195 20 180C18.7 165 20.3 150 22.5 135C24.7 120 27.3 105 25 90C22.7 75 15.3 60 16.2 45C17 30 26 15 30.5 7.5L35 0L54 0L53.2 7.5C52.3 15 50.7 30 52.2 45C53.7 60 58.3 75 56.2 90C54 105 45 120 42 135C39 150 42 165 47.3 180C52.7 195 60.3 210 63.3 225C66.3 240 64.7 255 58.5 270C52.3 285 41.7 300 41.7 315C41.7 330 52.3 345 60 360C67.7 375 72.3 390 70.8 405C69.3 420 61.7 435 60.8 450C60 465 66 480 63 495C60 510 48 525 46.5 540C45 555 54 570 60.8 585C67.7 600 72.3 615 73.2 630C74 645 71 660 63.3 675C55.7 690 43.3 705 41 720C38.7 735 46.3 750 47.8 765C49.3 780 44.7 795 44.7 810C44.7 825 49.3 840 53.2 855C57 870 60 885 61.5 892.5L63 900Z" fill="#931b3b"></path><path d="M8 900L11 892.5C14 885 20 870 20 855C20 840 14 825 12.5 810C11 795 14 780 14.8 765C15.7 750 14.3 735 12.2 720C10 705 7 690 9.2 675C11.3 660 18.7 645 21.7 630C24.7 615 23.3 600 19.7 585C16 570 10 555 7 540C4 525 4 510 4.7 495C5.3 480 6.7 465 8.2 450C9.7 435 11.3 420 11.3 405C11.3 390 9.7 375 8.8 360C8 345 8 330 8 315C8 300 8 285 9.5 270C11 255 14 240 14.8 225C15.7 210 14.3 195 12.2 180C10 165 7 150 8.5 135C10 120 16 105 16 90C16 75 10 60 7.7 45C5.3 30 6.7 15 7.3 7.5L8 0L36 0L31.5 7.5C27 15 18 30 17.2 45C16.3 60 23.7 75 26 90C28.3 105 25.7 120 23.5 135C21.3 150 19.7 165 21 180C22.3 195 26.7 210 27.5 225C28.3 240 25.7 255 24.3 270C23 285 23 300 22.2 315C21.3 330 19.7 345 21 360C22.3 375 26.7 390 27.5 405C28.3 420 25.7 435 26.5 450C27.3 465 31.7 480 30.8 495C30 510 24 525 24 540C24 555 30 570 36 585C42 600 48 615 48 630C48 645 42 660 36 675C30 690 24 705 24.7 720C25.3 735 32.7 750 32.7 765C32.7 780 25.3 795 23.8 810C22.3 825 26.7 840 27.5 855C28.3 870 25.7 885 24.3 892.5L23 900Z" fill="#9b2636"></path><path d="M0 900L0 892.5C0 885 0 870 0 855C0 840 0 825 0 810C0 795 0 780 0 765C0 750 0 735 0 720C0 705 0 690 0 675C0 660 0 645 0 630C0 615 0 600 0 585C0 570 0 555 0 540C0 525 0 510 0 495C0 480 0 465 0 450C0 435 0 420 0 405C0 390 0 375 0 360C0 345 0 330 0 315C0 300 0 285 0 270C0 255 0 240 0 225C0 210 0 195 0 180C0 165 0 150 0 135C0 120 0 105 0 90C0 75 0 60 0 45C0 30 0 15 0 7.5L0 0L9 0L8.3 7.5C7.7 15 6.3 30 8.7 45C11 60 17 75 17 90C17 105 11 120 9.5 135C8 150 11 165 13.2 180C15.3 195 16.7 210 15.8 225C15 240 12 255 10.5 270C9 285 9 300 9 315C9 330 9 345 9.8 360C10.7 375 12.3 390 12.3 405C12.3 420 10.7 435 9.2 450C7.7 465 6.3 480 5.7 495C5 510 5 525 8 540C11 555 17 570 20.7 585C24.3 600 25.7 615 22.7 630C19.7 645 12.3 660 10.2 675C8 690 11 705 13.2 720C15.3 735 16.7 750 15.8 765C15 780 12 795 13.5 810C15 825 21 840 21 855C21 870 15 885 12 892.5L9 900Z" fill="#a23131"></path></svg>