<svg id="visual" viewBox="0 0 675 900" width="675" height="900" xmlns="http://www.w3.org/2000/svg" xmlns:xlink="http://www.w3.org/1999/xlink" version="1.1"><path d="M0 28L5.7 29.5C11.3 31 22.7 34 34 37C45.3 40 56.7 43 67.8 46C79 49 90 52 101.2 46C112.3 40 123.7 25 135 17.5C146.3 10 157.7 10 169 17.5C180.3 25 191.7 40 202.8 50.5C214 61 225 67 236.2 59.5C247.3 52 258.7 31 270 23.5C281.3 16 292.7 22 304 23.5C315.3 25 326.7 22 337.8 19C349 16 360 13 371.2 14.5C382.3 16 393.7 22 405 32.5C416.3 43 427.7 58 438.8 58C450 58 461 43 472.2 38.5C483.3 34 494.7 40 506 44.5C517.3 49 528.7 52 540 56.5C551.3 61 562.7 67 574 61C585.3 55 596.7 37 607.8 37C619 37 630 55 641.2 62.5C652.3 70 663.7 67 669.3 65.5L675 64L675 0L669.3 0C663.7 0 652.3 0 641.2 0C630 0 619 0 607.8 0C596.7 0 585.3 0 574 0C562.7 0 551.3 0 540 0C528.7 0 517.3 0 506 0C494.7 0 483.3 0 472.2 0C461 0 450 0 438.8 0C427.7 0 416.3 0 405 0C393.7 0 382.3 0 371.2 0C360 0 349 0 337.8 0C326.7 0 315.3 0 304 0C292.7 0 281.3 0 270 0C258.7 0 247.3 0 236.2 0C225 0 214 0 202.8 0C191.7 0 180.3 0 169 0C157.7 0 146.3 0 135 0C123.7 0 112.3 0 101.2 0C90 0 79 0 67.8 0C56.7 0 45.3 0 34 0C22.7 0 11.3 0 5.7 0L0 0Z" fill="#a23131"></path><path d="M0 55L5.7 67C11.3 79 22.7 103 34 118C45.3 133 56.7 139 67.8 143.5C79 148 90 151 101.2 139C112.3 127 123.7 100 135 86.5C146.3 73 157.7 73 169 77.5C180.3 82 191.7 91 202.8 94C214 97 225 94 236.2 88C247.3 82 258.7 73 270 86.5C281.3 100 292.7 136 304 148C315.3 160 326.7 148 337.8 140.5C349 133 360 130 371.2 128.5C382.3 127 393.7 127 405 131.5C416.3 136 427.7 145 438.8 139C450 133 461 112 472.2 113.5C483.3 115 494.7 139 506 152.5C517.3 166 528.7 169 540 163C551.3 157 562.7 142 574 124C585.3 106 596.7 85 607.8 95.5C619 106 630 148 641.2 166C652.3 184 663.7 178 669.3 175L675 172L675 62L669.3 63.5C663.7 65 652.3 68 641.2 60.5C630 53 619 35 607.8 35C596.7 35 585.3 53 574 59C562.7 65 551.3 59 540 54.5C528.7 50 517.3 47 506 42.5C494.7 38 483.3 32 472.2 36.5C461 41 450 56 438.8 56C427.7 56 416.3 41 405 30.5C393.7 20 382.3 14 371.2 12.5C360 11 349 14 337.8 17C326.7 20 315.3 23 304 21.5C292.7 20 281.3 14 270 21.5C258.7 29 247.3 50 236.2 57.5C225 65 214 59 202.8 48.5C191.7 38 180.3 23 169 15.5C157.7 8 146.3 8 135 15.5C123.7 23 112.3 38 101.2 44C90 50 79 47 67.8 44C56.7 41 45.3 38 34 35C22.7 32 11.3 29 5.7 27.5L0 26Z" fill="#8f153d"></path><path d="M0 82L5.7 104.5C11.3 127 22.7 172 34 188.5C45.3 205 56.7 193 67.8 190C79 187 90 193 101.2 196C112.3 199 123.7 199 135 185.5C146.3 172 157.7 145 169 136C180.3 127 191.7 136 202.8 140.5C214 145 225 145 236.2 155.5C247.3 166 258.7 187 270 203.5C281.3 220 292.7 232 304 236.5C315.3 241 326.7 238 337.8 229C349 220 360 205 371.2 202C382.3 199 393.7 208 405 206.5C416.3 205 427.7 193 438.8 185.5C450 178 461 175 472.2 175C483.3 175 494.7 178 506 194.5C517.3 211 528.7 241 540 247C551.3 253 562.7 235 574 215.5C585.3 196 596.7 175 607.8 182.5C619 190 630 226 641.2 238C652.3 250 663.7 238 669.3 232L675 226L675 170L669.3 173C663.7 176 652.3 182 641.2 164C630 146 619 104 607.8 93.5C596.7 83 585.3 104 574 122C562.7 140 551.3 155 540 161C528.7 167 517.3 164 506 150.5C494.7 137 483.3 113 472.2 111.5C461 110 450 131 438.8 137C427.7 143 416.3 134 405 129.5C393.7 125 382.3 125 371.2 126.5C360 128 349 131 337.8 138.5C326.7 146 315.3 158 304 146C292.7 134 281.3 98 270 84.5C258.7 71 247.3 80 236.2 86C225 92 214 95 202.8 92C191.7 89 180.3 80 169 75.5C157.7 71 146.3 71 135 84.5C123.7 98 112.3 125 101.2 137C90 149 79 146 67.8 141.5C56.7 137 45.3 131 34 116C22.7 101 11.3 77 5.7 65L0 53Z" fill="#740147"></path><path d="M0 100L5.7 122.5C11.3 145 22.7 190 34 212.5C45.3 235 56.7 235 67.8 230.5C79 226 90 217 101.2 226C112.3 235 123.7 262 135 257.5C146.3 253 157.7 217 169 200.5C180.3 184 191.7 187 202.8 185.5C214 184 225 178 236.2 184C247.3 190 258.7 208 270 224.5C281.3 241 292.7 256 304 269.5C315.3 283 326.7 295 337.8 290.5C349 286 360 265 371.2 256C382.3 247 393.7 250 405 250C416.3 250 427.7 247 438.8 245.5C450 244 461 244 472.2 238C483.3 232 494.7 220 506 230.5C517.3 241 528.7 274 540 289C551.3 304 562.7 301 574 287.5C585.3 274 596.7 250 607.8 245.5C619 241 630 256 641.2 268C652.3 280 663.7 289 669.3 293.5L675 298L675 224L669.3 230C663.7 236 652.3 248 641.2 236C630 224 619 188 607.8 180.5C596.7 173 585.3 194 574 213.5C562.7 233 551.3 251 540 245C528.7 239 517.3 209 506 192.5C494.7 176 483.3 173 472.2 173C461 173 450 176 438.8 183.5C427.7 191 416.3 203 405 204.5C393.7 206 382.3 197 371.2 200C360 203 349 218 337.8 227C326.7 236 315.3 239 304 234.5C292.7 230 281.3 218 270 201.5C258.7 185 247.3 164 236.2 153.5C225 143 214 143 202.8 138.5C191.7 134 180.3 125 169 134C157.7 143 146.3 170 135 183.5C123.7 197 112.3 197 101.2 194C90 191 79 185 67.8 188C56.7 191 45.3 203 34 186.5C22.7 170 11.3 125 5.7 102.5L0 80Z" fill="#52034c"></path><path d="M0 163L5.7 185.5C11.3 208 22.7 253 34 274C45.3 295 56.7 292 67.8 290.5C79 289 90 289 101.2 293.5C112.3 298 123.7 307 135 299.5C146.3 292 157.7 268 169 262C180.3 256 191.7 268 202.8 268C214 268 225 256 236.2 254.5C247.3 253 258.7 262 270 275.5C281.3 289 292.7 307 304 329.5C315.3 352 326.7 379 337.8 371.5C349 364 360 322 371.2 307C382.3 292 393.7 304 405 311.5C416.3 319 427.7 322 438.8 313C450 304 461 283 472.2 266.5C483.3 250 494.7 238 506 256C517.3 274 528.7 322 540 347.5C551.3 373 562.7 376 574 361C585.3 346 596.7 313 607.8 308.5C619 304 630 328 641.2 344.5C652.3 361 663.7 370 669.3 374.5L675 379L675 296L669.3 291.5C663.7 287 652.3 278 641.2 266C630 254 619 239 607.8 243.5C596.7 248 585.3 272 574 285.5C562.7 299 551.3 302 540 287C528.7 272 517.3 239 506 228.5C494.7 218 483.3 230 472.2 236C461 242 450 242 438.8 243.5C427.7 245 416.3 248 405 248C393.7 248 382.3 245 371.2 254C360 263 349 284 337.8 288.5C326.7 293 315.3 281 304 267.5C292.7 254 281.3 239 270 222.5C258.7 206 247.3 188 236.2 182C225 176 214 182 202.8 183.5C191.7 185 180.3 182 169 198.5C157.7 215 146.3 251 135 255.5C123.7 260 112.3 233 101.2 224C90 215 79 224 67.8 228.5C56.7 233 45.3 233 34 210.5C22.7 188 11.3 143 5.7 120.5L0 98Z" fill="#280a4b"></path><path d="M0 280L5.7 331C11.3 382 22.7 484 34 506.5C45.3 529 56.7 472 67.8 454C79 436 90 457 101.2 454C112.3 451 123.7 424 135 421C146.3 418 157.7 439 169 434.5C180.3 430 191.7 400 202.8 389.5C214 379 225 388 236.2 406C247.3 424 258.7 451 270 448C281.3 445 292.7 412 304 428.5C315.3 445 326.7 511 337.8 518.5C349 526 360 475 371.2 466C382.3 457 393.7 490 405 488.5C416.3 487 427.7 451 438.8 451C450 451 461 487 472.2 467.5C483.3 448 494.7 373 506 361C517.3 349 528.7 400 540 457C551.3 514 562.7 577 574 590.5C585.3 604 596.7 568 607.8 542.5C619 517 630 502 641.2 491.5C652.3 481 663.7 475 669.3 472L675 469L675 377L669.3 372.5C663.7 368 652.3 359 641.2 342.5C630 326 619 302 607.8 306.5C596.7 311 585.3 344 574 359C562.7 374 551.3 371 540 345.5C528.7 320 517.3 272 506 254C494.7 236 483.3 248 472.2 264.5C461 281 450 302 438.8 311C427.7 320 416.3 317 405 309.5C393.7 302 382.3 290 371.2 305C360 320 349 362 337.8 369.5C326.7 377 315.3 350 304 327.5C292.7 305 281.3 287 270 273.5C258.7 260 247.3 251 236.2 252.5C225 254 214 266 202.8 266C191.7 266 180.3 254 169 260C157.7 266 146.3 290 135 297.5C123.7 305 112.3 296 101.2 291.5C90 287 79 287 67.8 288.5C56.7 290 45.3 293 34 272C22.7 251 11.3 206 5.7 183.5L0 161Z" fill="#100c49"></path><path d="M0 442L5.7 475C11.3 508 22.7 574 34 596.5C45.3 619 56.7 598 67.8 575.5C79 553 90 529 101.2 523C112.3 517 123.7 529 135 547C146.3 565 157.7 589 169 578.5C180.3 568 191.7 523 202.8 509.5C214 496 225 514 236.2 529C247.3 544 258.7 556 270 556C281.3 556 292.7 544 304 556C315.3 568 326.7 604 337.8 599.5C349 595 360 550 371.2 545.5C382.3 541 393.7 577 405 571C416.3 565 427.7 517 438.8 514C450 511 461 553 472.2 547C483.3 541 494.7 487 506 470.5C517.3 454 528.7 475 540 529C551.3 583 562.7 670 574 682C585.3 694 596.7 631 607.8 601C619 571 630 574 641.2 571C652.3 568 663.7 559 669.3 554.5L675 550L675 467L669.3 470C663.7 473 652.3 479 641.2 489.5C630 500 619 515 607.8 540.5C596.7 566 585.3 602 574 588.5C562.7 575 551.3 512 540 455C528.7 398 517.3 347 506 359C494.7 371 483.3 446 472.2 465.5C461 485 450 449 438.8 449C427.7 449 416.3 485 405 486.5C393.7 488 382.3 455 371.2 464C360 473 349 524 337.8 516.5C326.7 509 315.3 443 304 426.5C292.7 410 281.3 443 270 446C258.7 449 247.3 422 236.2 404C225 386 214 377 202.8 387.5C191.7 398 180.3 428 169 432.5C157.7 437 146.3 416 135 419C123.7 422 112.3 449 101.2 452C90 455 79 434 67.8 452C56.7 470 45.3 527 34 504.5C22.7 482 11.3 380 5.7 329L0 278Z" fill="#100c49"></path><path d="M0 478L5.7 512.5C11.3 547 22.7 616 34 644.5C45.3 673 56.7 661 67.8 640C79 619 90 589 101.2 577C112.3 565 123.7 571 135 587.5C146.3 604 157.7 631 169 617.5C180.3 604 191.7 550 202.8 533.5C214 517 225 538 236.2 553C247.3 568 258.7 577 270 577C281.3 577 292.7 568 304 584.5C315.3 601 326.7 643 337.8 640C349 637 360 589 371.2 587.5C382.3 586 393.7 631 405 622C416.3 613 427.7 550 438.8 545.5C450 541 461 595 472.2 595C483.3 595 494.7 541 506 520C517.3 499 528.7 511 540 560.5C551.3 610 562.7 697 574 715C585.3 733 596.7 682 607.8 653.5C619 625 630 619 641.2 608.5C652.3 598 663.7 583 669.3 575.5L675 568L675 548L669.3 552.5C663.7 557 652.3 566 641.2 569C630 572 619 569 607.8 599C596.7 629 585.3 692 574 680C562.7 668 551.3 581 540 527C528.7 473 517.3 452 506 468.5C494.7 485 483.3 539 472.2 545C461 551 450 509 438.8 512C427.7 515 416.3 563 405 569C393.7 575 382.3 539 371.2 543.5C360 548 349 593 337.8 597.5C326.7 602 315.3 566 304 554C292.7 542 281.3 554 270 554C258.7 554 247.3 542 236.2 527C225 512 214 494 202.8 507.5C191.7 521 180.3 566 169 576.5C157.7 587 146.3 563 135 545C123.7 527 112.3 515 101.2 521C90 527 79 551 67.8 573.5C56.7 596 45.3 617 34 594.5C22.7 572 11.3 506 5.7 473L0 440Z" fill="#280a4b"></path><path d="M0 775L5.7 778C11.3 781 22.7 787 34 794.5C45.3 802 56.7 811 67.8 811C79 811 90 802 101.2 805C112.3 808 123.7 823 135 818.5C146.3 814 157.7 790 169 775C180.3 760 191.7 754 202.8 755.5C214 757 225 766 236.2 779.5C247.3 793 258.7 811 270 808C281.3 805 292.7 781 304 775C315.3 769 326.7 781 337.8 779.5C349 778 360 763 371.2 760C382.3 757 393.7 766 405 781C416.3 796 427.7 817 438.8 817C450 817 461 796 472.2 784C483.3 772 494.7 769 506 775C517.3 781 528.7 796 540 806.5C551.3 817 562.7 823 574 817C585.3 811 596.7 793 607.8 788.5C619 784 630 793 641.2 796C652.3 799 663.7 796 669.3 794.5L675 793L675 566L669.3 573.5C663.7 581 652.3 596 641.2 606.5C630 617 619 623 607.8 651.5C596.7 680 585.3 731 574 713C562.7 695 551.3 608 540 558.5C528.7 509 517.3 497 506 518C494.7 539 483.3 593 472.2 593C461 593 450 539 438.8 543.5C427.7 548 416.3 611 405 620C393.7 629 382.3 584 371.2 585.5C360 587 349 635 337.8 638C326.7 641 315.3 599 304 582.5C292.7 566 281.3 575 270 575C258.7 575 247.3 566 236.2 551C225 536 214 515 202.8 531.5C191.7 548 180.3 602 169 615.5C157.7 629 146.3 602 135 585.5C123.7 569 112.3 563 101.2 575C90 587 79 617 67.8 638C56.7 659 45.3 671 34 642.5C22.7 614 11.3 545 5.7 510.5L0 476Z" fill="#52034c"></path><path d="M0 856L5.7 853C11.3 850 22.7 844 34 845.5C45.3 847 56.7 856 67.8 853C79 850 90 835 101.2 835C112.3 835 123.7 850 135 851.5C146.3 853 157.7 841 169 829C180.3 817 191.7 805 202.8 805C214 805 225 817 236.2 829C247.3 841 258.7 853 270 853C281.3 853 292.7 841 304 839.5C315.3 838 326.7 847 337.8 848.5C349 850 360 844 371.2 845.5C382.3 847 393.7 856 405 859C416.3 862 427.7 859 438.8 857.5C450 856 461 856 472.2 853C483.3 850 494.7 844 506 845.5C517.3 847 528.7 856 540 859C551.3 862 562.7 859 574 854.5C585.3 850 596.7 844 607.8 848.5C619 853 630 868 641.2 866.5C652.3 865 663.7 847 669.3 838L675 829L675 791L669.3 792.5C663.7 794 652.3 797 641.2 794C630 791 619 782 607.8 786.5C596.7 791 585.3 809 574 815C562.7 821 551.3 815 540 804.5C528.7 794 517.3 779 506 773C494.7 767 483.3 770 472.2 782C461 794 450 815 438.8 815C427.7 815 416.3 794 405 779C393.7 764 382.3 755 371.2 758C360 761 349 776 337.8 777.5C326.7 779 315.3 767 304 773C292.7 779 281.3 803 270 806C258.7 809 247.3 791 236.2 777.5C225 764 214 755 202.8 753.5C191.7 752 180.3 758 169 773C157.7 788 146.3 812 135 816.5C123.7 821 112.3 806 101.2 803C90 800 79 809 67.8 809C56.7 809 45.3 800 34 792.5C22.7 785 11.3 779 5.7 776L0 773Z" fill="#740147"></path><path d="M0 883L5.7 877C11.3 871 22.7 859 34 859C45.3 859 56.7 871 67.8 874C79 877 90 871 101.2 869.5C112.3 868 123.7 871 135 875.5C146.3 880 157.7 886 169 881.5C180.3 877 191.7 862 202.8 856C214 850 225 853 236.2 860.5C247.3 868 258.7 880 270 886C281.3 892 292.7 892 304 890.5C315.3 889 326.7 886 337.8 883C349 880 360 877 371.2 877C382.3 877 393.7 880 405 881.5C416.3 883 427.7 883 438.8 883C450 883 461 883 472.2 880C483.3 877 494.7 871 506 869.5C517.3 868 528.7 871 540 875.5C551.3 880 562.7 886 574 883C585.3 880 596.7 868 607.8 868C619 868 630 880 641.2 884.5C652.3 889 663.7 886 669.3 884.5L675 883L675 827L669.3 836C663.7 845 652.3 863 641.2 864.5C630 866 619 851 607.8 846.5C596.7 842 585.3 848 574 852.5C562.7 857 551.3 860 540 857C528.7 854 517.3 845 506 843.5C494.7 842 483.3 848 472.2 851C461 854 450 854 438.8 855.5C427.7 857 416.3 860 405 857C393.7 854 382.3 845 371.2 843.5C360 842 349 848 337.8 846.5C326.7 845 315.3 836 304 837.5C292.7 839 281.3 851 270 851C258.7 851 247.3 839 236.2 827C225 815 214 803 202.8 803C191.7 803 180.3 815 169 827C157.7 839 146.3 851 135 849.5C123.7 848 112.3 833 101.2 833C90 833 79 848 67.8 851C56.7 854 45.3 845 34 843.5C22.7 842 11.3 848 5.7 851L0 854Z" fill="#8f153d"></path><path d="M0 901L5.7 901C11.3 901 22.7 901 34 901C45.3 901 56.7 901 67.8 901C79 901 90 901 101.2 901C112.3 901 123.7 901 135 901C146.3 901 157.7 901 169 901C180.3 901 191.7 901 202.8 901C214 901 225 901 236.2 901C247.3 901 258.7 901 270 901C281.3 901 292.7 901 304 901C315.3 901 326.7 901 337.8 901C349 901 360 901 371.2 901C382.3 901 393.7 901 405 901C416.3 901 427.7 901 438.8 901C450 901 461 901 472.2 901C483.3 901 494.7 901 506 901C517.3 901 528.7 901 540 901C551.3 901 562.7 901 574 901C585.3 901 596.7 901 607.8 901C619 901 630 901 641.2 901C652.3 901 663.7 901 669.3 901L675 901L675 881L669.3 882.5C663.7 884 652.3 887 641.2 882.5C630 878 619 866 607.8 866C596.7 866 585.3 878 574 881C562.7 884 551.3 878 540 873.5C528.7 869 517.3 866 506 867.5C494.7 869 483.3 875 472.2 878C461 881 450 881 438.8 881C427.7 881 416.3 881 405 879.5C393.7 878 382.3 875 371.2 875C360 875 349 878 337.8 881C326.7 884 315.3 887 304 888.5C292.7 890 281.3 890 270 884C258.7 878 247.3 866 236.2 858.5C225 851 214 848 202.8 854C191.7 860 180.3 875 169 879.5C157.7 884 146.3 878 135 873.5C123.7 869 112.3 866 101.2 867.5C90 869 79 875 67.8 872C56.7 869 45.3 857 34 857C22.7 857 11.3 869 5.7 875L0 881Z" fill="#a23131"></path></svg>