<svg id="visual" viewBox="0 0 2550 1440" width="2550" height="1440" xmlns="http://www.w3.org/2000/svg" xmlns:xlink="http://www.w3.org/1999/xlink" version="1.1"><rect x="0" y="0" width="2550" height="1440" fill="#071422"></rect><path d="M0 716L182 481L364 631L546 508L729 320L911 466L1093 126L1275 389L1457 571L1639 600L1821 361L2004 532L2186 226L2368 352L2550 189L2550 1441L2368 1441L2186 1441L2004 1441L1821 1441L1639 1441L1457 1441L1275 1441L1093 1441L911 1441L729 1441L546 1441L364 1441L182 1441L0 1441Z" fill="#100c49"></path><path d="M0 656L182 693L364 519L546 361L729 414L911 600L1093 644L1275 358L1457 534L1639 242L1821 723L2004 789L2186 601L2368 532L2550 207L2550 1441L2368 1441L2186 1441L2004 1441L1821 1441L1639 1441L1457 1441L1275 1441L1093 1441L911 1441L729 1441L546 1441L364 1441L182 1441L0 1441Z" fill="#280a4b"></path><path d="M0 733L182 422L364 606L546 811L729 714L911 372L1093 819L1275 693L1457 402L1639 612L1821 604L2004 330L2186 567L2368 405L2550 446L2550 1441L2368 1441L2186 1441L2004 1441L1821 1441L1639 1441L1457 1441L1275 1441L1093 1441L911 1441L729 1441L546 1441L364 1441L182 1441L0 1441Z" fill="#3b074c"></path><path d="M0 923L182 804L364 843L546 411L729 881L911 650L1093 526L1275 845L1457 801L1639 768L1821 486L2004 637L2186 532L2368 800L2550 440L2550 1441L2368 1441L2186 1441L2004 1441L1821 1441L1639 1441L1457 1441L1275 1441L1093 1441L911 1441L729 1441L546 1441L364 1441L182 1441L0 1441Z" fill="#4b044c"></path><path d="M0 777L182 805L364 971L546 838L729 596L911 879L1093 822L1275 988L1457 894L1639 702L1821 853L2004 613L2186 600L2368 867L2550 849L2550 1441L2368 1441L2186 1441L2004 1441L1821 1441L1639 1441L1457 1441L1275 1441L1093 1441L911 1441L729 1441L546 1441L364 1441L182 1441L0 1441Z" fill="#5a014b"></path><path d="M0 972L182 1025L364 764L546 765L729 815L911 712L1093 1033L1275 670L1457 783L1639 993L1821 985L2004 685L2186 648L2368 1044L2550 645L2550 1441L2368 1441L2186 1441L2004 1441L1821 1441L1639 1441L1457 1441L1275 1441L1093 1441L911 1441L729 1441L546 1441L364 1441L182 1441L0 1441Z" fill="#670049"></path><path d="M0 802L182 875L364 1022L546 907L729 948L911 818L1093 805L1275 805L1457 1007L1639 1096L1821 732L2004 836L2186 810L2368 1028L2550 933L2550 1441L2368 1441L2186 1441L2004 1441L1821 1441L1639 1441L1457 1441L1275 1441L1093 1441L911 1441L729 1441L546 1441L364 1441L182 1441L0 1441Z" fill="#740147"></path><path d="M0 1079L182 958L364 847L546 1120L729 990L911 1085L1093 988L1275 982L1457 997L1639 1051L1821 867L2004 917L2186 844L2368 1008L2550 1160L2550 1441L2368 1441L2186 1441L2004 1441L1821 1441L1639 1441L1457 1441L1275 1441L1093 1441L911 1441L729 1441L546 1441L364 1441L182 1441L0 1441Z" fill="#800643"></path><path d="M0 1057L182 1194L364 949L546 1095L729 962L911 1223L1093 997L1275 1159L1457 1089L1639 1163L1821 996L2004 979L2186 1138L2368 1148L2550 1094L2550 1441L2368 1441L2186 1441L2004 1441L1821 1441L1639 1441L1457 1441L1275 1441L1093 1441L911 1441L729 1441L546 1441L364 1441L182 1441L0 1441Z" fill="#8a103f"></path><path d="M0 1211L182 1248L364 1246L546 1048L729 1150L911 1265L1093 1166L1275 1187L1457 1161L1639 1052L1821 1038L2004 1113L2186 1156L2368 1050L2550 1247L2550 1441L2368 1441L2186 1441L2004 1441L1821 1441L1639 1441L1457 1441L1275 1441L1093 1441L911 1441L729 1441L546 1441L364 1441L182 1441L0 1441Z" fill="#931b3b"></path><path d="M0 1346L182 1236L364 1229L546 1137L729 1283L911 1251L1093 1301L1275 1183L1457 1291L1639 1261L1821 1172L2004 1148L2186 1161L2368 1353L2550 1287L2550 1441L2368 1441L2186 1441L2004 1441L1821 1441L1639 1441L1457 1441L1275 1441L1093 1441L911 1441L729 1441L546 1441L364 1441L182 1441L0 1441Z" fill="#9b2636"></path><path d="M0 1290L182 1345L364 1333L546 1401L729 1276L911 1247L1093 1263L1275 1404L1457 1397L1639 1367L1821 1290L2004 1404L2186 1308L2368 1298L2550 1331L2550 1441L2368 1441L2186 1441L2004 1441L1821 1441L1639 1441L1457 1441L1275 1441L1093 1441L911 1441L729 1441L546 1441L364 1441L182 1441L0 1441Z" fill="#a23131"></path></svg>