<svg id="visual" viewBox="0 0 450 900" width="450" height="900" xmlns="http://www.w3.org/2000/svg" xmlns:xlink="http://www.w3.org/1999/xlink" version="1.1"><rect x="0" y="0" width="450" height="900" fill="#071422"></rect><path d="M0 504L41 549L82 634L123 580L164 623L205 581L245 501L286 582L327 595L368 548L409 566L450 616L450 0L409 0L368 0L327 0L286 0L245 0L205 0L164 0L123 0L82 0L41 0L0 0Z" fill="#100c49"></path><path d="M0 546L41 430L82 550L123 433L164 515L205 559L245 521L286 446L327 496L368 514L409 513L450 439L450 0L409 0L368 0L327 0L286 0L245 0L205 0L164 0L123 0L82 0L41 0L0 0Z" fill="#33094c"></path><path d="M0 395L41 427L82 366L123 414L164 349L205 459L245 453L286 454L327 356L368 455L409 370L450 393L450 0L409 0L368 0L327 0L286 0L245 0L205 0L164 0L123 0L82 0L41 0L0 0Z" fill="#4d044c"></path><path d="M0 343L41 363L82 387L123 374L164 405L205 330L245 290L286 413L327 298L368 291L409 407L450 367L450 0L409 0L368 0L327 0L286 0L245 0L205 0L164 0L123 0L82 0L41 0L0 0Z" fill="#64004a"></path><path d="M0 339L41 327L82 247L123 253L164 296L205 291L245 252L286 241L327 226L368 307L409 315L450 290L450 0L409 0L368 0L327 0L286 0L245 0L205 0L164 0L123 0L82 0L41 0L0 0Z" fill="#780246"></path><path d="M0 254L41 191L82 185L123 190L164 265L205 220L245 248L286 206L327 224L368 179L409 175L450 220L450 0L409 0L368 0L327 0L286 0L245 0L205 0L164 0L123 0L82 0L41 0L0 0Z" fill="#890f40"></path><path d="M0 110L41 178L82 181L123 180L164 156L205 126L245 167L286 117L327 106L368 124L409 107L450 110L450 0L409 0L368 0L327 0L286 0L245 0L205 0L164 0L123 0L82 0L41 0L0 0Z" fill="#971f39"></path><path d="M0 77L41 44L82 73L123 91L164 48L205 93L245 80L286 92L327 56L368 117L409 87L450 102L450 0L409 0L368 0L327 0L286 0L245 0L205 0L164 0L123 0L82 0L41 0L0 0Z" fill="#a23131"></path></svg>