<svg id="visual" viewBox="0 0 675 900" width="675" height="900" xmlns="http://www.w3.org/2000/svg" xmlns:xlink="http://www.w3.org/1999/xlink" version="1.1"><rect x="0" y="0" width="675" height="900" fill="#071422"></rect><path d="M0 451L48 598L96 504L145 581L193 699L241 607L289 820L338 655L386 542L434 524L482 673L530 566L579 757L627 678L675 781L675 0L627 0L579 0L530 0L482 0L434 0L386 0L338 0L289 0L241 0L193 0L145 0L96 0L48 0L0 0Z" fill="#100c49"></path><path d="M0 489L48 465L96 574L145 673L193 640L241 524L289 496L338 675L386 564L434 747L482 446L530 405L579 523L627 566L675 769L675 0L627 0L579 0L530 0L482 0L434 0L386 0L338 0L289 0L241 0L193 0L145 0L96 0L48 0L0 0Z" fill="#280a4b"></path><path d="M0 440L48 635L96 519L145 391L193 452L241 666L289 387L338 465L386 647L434 516L482 521L530 692L579 544L627 645L675 620L675 0L627 0L579 0L530 0L482 0L434 0L386 0L338 0L289 0L241 0L193 0L145 0L96 0L48 0L0 0Z" fill="#3b074c"></path><path d="M0 321L48 396L96 372L145 642L193 348L241 492L289 570L338 371L386 398L434 419L482 595L530 500L579 566L627 398L675 623L675 0L627 0L579 0L530 0L482 0L434 0L386 0L338 0L289 0L241 0L193 0L145 0L96 0L48 0L0 0Z" fill="#4b044c"></path><path d="M0 413L48 395L96 291L145 375L193 526L241 349L289 385L338 281L386 339L434 460L482 365L530 515L579 523L627 356L675 368L675 0L627 0L579 0L530 0L482 0L434 0L386 0L338 0L289 0L241 0L193 0L145 0L96 0L48 0L0 0Z" fill="#5a014b"></path><path d="M0 291L48 258L96 421L145 420L193 389L241 453L289 253L338 480L386 409L434 278L482 283L530 470L579 493L627 246L675 495L675 0L627 0L579 0L530 0L482 0L434 0L386 0L338 0L289 0L241 0L193 0L145 0L96 0L48 0L0 0Z" fill="#670049"></path><path d="M0 397L48 352L96 260L145 331L193 306L241 387L289 395L338 395L386 269L434 214L482 441L530 376L579 392L627 256L675 315L675 0L627 0L579 0L530 0L482 0L434 0L386 0L338 0L289 0L241 0L193 0L145 0L96 0L48 0L0 0Z" fill="#740147"></path><path d="M0 224L48 300L96 369L145 198L193 280L241 221L289 281L338 285L386 275L434 241L482 357L530 325L579 371L627 268L675 173L675 0L627 0L579 0L530 0L482 0L434 0L386 0L338 0L289 0L241 0L193 0L145 0L96 0L48 0L0 0Z" fill="#800643"></path><path d="M0 238L48 152L96 305L145 214L193 297L241 134L289 275L338 174L386 218L434 172L482 276L530 286L579 187L627 181L675 214L675 0L627 0L579 0L530 0L482 0L434 0L386 0L338 0L289 0L241 0L193 0L145 0L96 0L48 0L0 0Z" fill="#8a103f"></path><path d="M0 141L48 118L96 120L145 243L193 179L241 108L289 170L338 156L386 173L434 241L482 249L530 203L579 176L627 242L675 119L675 0L627 0L579 0L530 0L482 0L434 0L386 0L338 0L289 0L241 0L193 0L145 0L96 0L48 0L0 0Z" fill="#931b3b"></path><path d="M0 57L48 126L96 130L145 188L193 96L241 116L289 85L338 159L386 91L434 110L482 166L530 181L579 173L627 53L675 94L675 0L627 0L579 0L530 0L482 0L434 0L386 0L338 0L289 0L241 0L193 0L145 0L96 0L48 0L0 0Z" fill="#9b2636"></path><path d="M0 92L48 58L96 65L145 23L193 101L241 119L289 109L338 21L386 25L434 44L482 92L530 21L579 81L627 87L675 67L675 0L627 0L579 0L530 0L482 0L434 0L386 0L338 0L289 0L241 0L193 0L145 0L96 0L48 0L0 0Z" fill="#a23131"></path></svg>